<?xml version="1.0" encoding="UTF-8"?>
<svg version="1.1" xmlns="http://www.w3.org/2000/svg" width="500" height="500">
<path d="M0 0 C0.83402344 -0.00128906 1.66804688 -0.00257813 2.52734375 -0.00390625 C3.39488281 -0.00003906 4.26242188 0.00382813 5.15625 0.0078125 C6.45755859 0.00201172 6.45755859 0.00201172 7.78515625 -0.00390625 C8.61917969 -0.00261719 9.45320313 -0.00132812 10.3125 0 C11.07369141 0.00112793 11.83488281 0.00225586 12.61914062 0.00341797 C14.65625 0.1328125 14.65625 0.1328125 17.65625 1.1328125 C19.53898999 1.1328125 21.42176963 1.13127313 23.30444336 1.11547852 C32.35555649 1.1879691 32.35555649 1.1879691 35.7265625 3.63671875 C37.32816014 6.04826719 38.46623786 8.49139826 39.65625 11.1328125 C40.74731962 13.13258275 41.87738557 15.10738007 43.01025391 17.08374023 C44.20140274 19.16500211 45.36839573 21.25829372 46.53125 23.35546875 C48.77308763 27.37110077 51.16110657 31.2693646 53.65625 35.1328125 C61.66922189 27.68380344 65.90561245 15.82668102 70.65625 6.1328125 C71.31625 4.8128125 71.97625 3.4928125 72.65625 2.1328125 C78.59625 2.1328125 84.53625 2.1328125 90.65625 2.1328125 C89.31814662 6.14712263 88.26195321 9.14610037 86.29296875 12.72265625 C85.58974487 14.00692505 85.58974487 14.00692505 84.87231445 15.31713867 C84.11567505 16.67995972 84.11567505 16.67995972 83.34375 18.0703125 C82.82192139 19.01946533 82.30009277 19.96861816 81.76245117 20.9465332 C77.16915092 29.27499971 72.48542684 37.55307846 67.75854492 45.80639648 C67.23623291 46.72235596 66.7139209 47.63831543 66.17578125 48.58203125 C65.48125854 49.79379028 65.48125854 49.79379028 64.77270508 51.0300293 C62.60009188 55.12202962 62.55058381 58.34744871 62.59375 62.91796875 C62.59753662 63.57486191 62.60132324 64.23175507 62.60522461 64.90855408 C62.6174281 67.00420721 62.6360608 69.09972199 62.65625 71.1953125 C62.68278976 73.95702749 62.70280658 76.71867456 62.71875 79.48046875 C62.73035156 80.70773682 62.74195313 81.93500488 62.75390625 83.19946289 C62.65625 86.1328125 62.65625 86.1328125 61.65625 88.1328125 C59.36515403 88.21356915 57.07325733 88.27188981 54.78125 88.3203125 C52.86699219 88.37251953 52.86699219 88.37251953 50.9140625 88.42578125 C49.83898437 88.32910156 48.76390625 88.23242188 47.65625 88.1328125 C45.26182438 84.54117408 45.49712182 83.22304257 45.70703125 78.98828125 C46.78580008 60.57578072 46.78580008 60.57578072 39.88085938 43.97705078 C37.81976512 40.87308228 36.05005188 37.60399564 34.22607422 34.35693359 C32.68077796 31.61385249 31.10488571 28.89032955 29.5234375 26.16796875 C27.78253125 23.147786 26.10452809 20.11861099 24.5390625 17.00390625 C23.66894531 15.27333984 23.66894531 15.27333984 22.78125 13.5078125 C22.30945313 12.52554688 21.83765625 11.54328125 21.3515625 10.53125 C19.21924817 7.51456567 17.02608855 6.5314363 13.65625 5.1328125 C13.65625 5.7928125 13.65625 6.4528125 13.65625 7.1328125 C14.31625 7.1328125 14.97625 7.1328125 15.65625 7.1328125 C17.94320198 10.77104196 17.91418353 13.86246544 17.921875 18.1015625 C17.92378845 18.77771606 17.9257019 19.45386963 17.92767334 20.1505127 C17.92903222 21.58276745 17.92535652 23.01503465 17.91699219 24.44726562 C17.90642134 26.59795268 17.91682707 28.74777864 17.9296875 30.8984375 C17.95560497 52.23962546 17.95560497 52.23962546 14.20800781 56.95507812 C12.65625 58.1328125 12.65625 58.1328125 10.65625 58.1328125 C10.6876709 59.77310425 10.6876709 59.77310425 10.71972656 61.4465332 C10.79281131 65.5521912 10.83829534 69.65779324 10.87597656 73.76391602 C10.89593762 75.53191843 10.92311652 77.29985616 10.95800781 79.06762695 C11.39739579 101.9222634 11.39739579 101.9222634 4.64160156 109.34692383 C-1.45126884 115.01946709 -6.00021573 116.61315323 -14.3046875 116.44140625 C-20.50250273 115.81206511 -24.54197817 113.28599542 -28.71875 108.7578125 C-33.14546867 103.07145843 -33.63383935 97.4398287 -34.09765625 90.42578125 C-34.09712154 88.17023697 -34.09712154 88.17023697 -35.34375 87.1328125 C-35.4321783 84.68477483 -35.45910972 82.26436456 -35.44140625 79.81640625 C-35.44039917 79.16869263 -35.43939209 78.520979 -35.43835449 77.8536377 C-35.43310843 75.42584471 -35.41914725 72.99807689 -35.40625 70.5703125 C-35.3753125 62.43375 -35.3753125 62.43375 -35.34375 54.1328125 C-46.56375 54.4628125 -57.78375 54.7928125 -69.34375 55.1328125 C-69.67375 66.0228125 -70.00375 76.9128125 -70.34375 88.1328125 C-75.29375 88.1328125 -80.24375 88.1328125 -85.34375 88.1328125 C-86.07009127 83.04842361 -86.4880177 78.38380793 -86.47314453 73.30151367 C-86.47489685 72.55267914 -86.47664917 71.8038446 -86.47845459 71.03231812 C-86.48282311 68.58011495 -86.47995436 66.12798502 -86.4765625 63.67578125 C-86.47723662 61.964218 -86.47820755 60.25265484 -86.47946167 58.54109192 C-86.48093155 54.96626874 -86.47880559 51.39147064 -86.47412109 47.81665039 C-86.46840257 43.2287635 -86.47172066 38.64093484 -86.47769356 34.05305004 C-86.48129992 30.52469948 -86.48016061 26.99636283 -86.47756577 23.46801186 C-86.47689782 21.77547511 -86.4777203 20.08293712 -86.48004532 18.39040184 C-86.48257539 16.03261312 -86.47872721 13.67492022 -86.47314453 11.31713867 C-86.47516876 10.61531967 -86.47719299 9.91350067 -86.47927856 9.19041443 C-86.4580192 4.36135091 -86.4580192 4.36135091 -85.34375 2.1328125 C-80.39375 2.1328125 -75.44375 2.1328125 -70.34375 2.1328125 C-70.01375 14.0128125 -69.68375 25.8928125 -69.34375 38.1328125 C-58.45375 38.1328125 -47.56375 38.1328125 -36.34375 38.1328125 C-36.01375 26.2528125 -35.68375 14.3728125 -35.34375 2.1328125 C-30.06375 2.1328125 -24.78375 2.1328125 -19.34375 2.1328125 C-19.34375 30.5128125 -19.34375 58.8928125 -19.34375 88.1328125 C-21.32375 88.4628125 -23.30375 88.7928125 -25.34375 89.1328125 C-25.78441916 94.53100967 -25.79123493 98.99311803 -22.73828125 103.62109375 C-20.09270812 106.48898395 -17.08015304 108.08326109 -13.34375 109.1328125 C-9.05559502 108.98745131 -5.09324908 108.2753834 -1.34375 106.1328125 C0.00687487 104.06157834 0.00687487 104.06157834 0.65625 101.1328125 C0.84058594 100.46507812 1.02492188 99.79734375 1.21484375 99.109375 C2.88801115 92.16284551 2.92548288 85.34658927 2.71386719 78.23144531 C2.67389048 76.77534474 2.6467976 75.31885572 2.62988281 73.86230469 C2.60185433 71.55527048 2.5394431 69.25139599 2.46875 66.9453125 C2.46319092 66.22657959 2.45763184 65.50784668 2.4519043 64.76733398 C2.2900356 61.0184906 2.03659936 59.48376288 -0.76953125 56.89453125 C-1.61902344 56.31316406 -2.46851563 55.73179687 -3.34375 55.1328125 C-5.21755196 52.13709559 -5.68640637 49.54803982 -5.9765625 46.0546875 C-6.06067383 45.0656543 -6.14478516 44.07662109 -6.23144531 43.05761719 C-6.30975586 42.00993164 -6.38806641 40.96224609 -6.46875 39.8828125 C-6.5522168 38.81192383 -6.63568359 37.74103516 -6.72167969 36.63769531 C-8.51660051 12.21944586 -8.51660051 12.21944586 -5.34375 7.1328125 C-7.32375 6.4728125 -9.30375 5.8128125 -11.34375 5.1328125 C-7.7131025 1.25177552 -5.29543015 0.00784674 0 0 Z M-1.34375 9.1328125 C-3.52060386 13.4613057 -3.50986024 17.2283564 -3.15625 21.9453125 C-3.10654053 22.68362305 -3.05683105 23.42193359 -3.00561523 24.18261719 C-2.30127689 33.3012314 -1.48197478 43.90217355 2.65625 52.1328125 C5.10164786 53.20553812 5.10164786 53.20553812 7.65625 53.1328125 C10.34662084 50.44244166 10.45977876 48.21922158 11.21875 44.5078125 C11.46753906 43.31929687 11.71632813 42.13078125 11.97265625 40.90625 C13.22612167 33.98712086 13.83755681 27.33719705 13.84375 20.3203125 C13.86211914 19.19592773 13.86211914 19.19592773 13.88085938 18.04882812 C13.89116377 14.20529022 13.83817729 12.40570343 11.65625 9.1328125 C8.53067041 8.76751018 8.53067041 8.76751018 5.03125 8.9453125 C3.84273438 8.97238281 2.65421875 8.99945313 1.4296875 9.02734375 C0.05683594 9.07955078 0.05683594 9.07955078 -1.34375 9.1328125 Z " fill="#074648" transform="translate(167.34375,191.8671875)"/>
<path d="M0 0 C4.95 0 9.9 0 15 0 C15.33 3.3 15.66 6.6 16 10 C16.804375 9.2575 17.60875 8.515 18.4375 7.75 C28.023415 -0.24583432 39.99734294 -1.0632332 52 0 C63.53954932 2.29740743 72.19634842 8.50356829 79 18 C86.78317775 30.95407056 88.23487862 42.01877694 84.8125 56.625 C81.71911254 67.04483144 74.16927327 76.50920124 64.70703125 81.86328125 C53.01314977 87.39970649 40.51016031 89.31384838 28 85 C17.2095061 80.99778812 7.96902685 71.78490797 2.78515625 61.6171875 C-2.4212351 49.20337183 -1.16697979 34.21846317 -1.13037109 20.94921875 C-1.12489153 18.57806332 -1.13042023 16.2070881 -1.13671875 13.8359375 C-1.13605979 12.32031208 -1.13478243 10.80468678 -1.1328125 9.2890625 C-1.13483673 8.58399567 -1.13686096 7.87892883 -1.13894653 7.15249634 C-1.11503607 2.23007213 -1.11503607 2.23007213 0 0 Z M21.625 25.6328125 C17.0583237 32.28523038 14.60268181 40.96894898 16 49 C18.7298142 58.59084453 23.54358499 64.87871441 32.25390625 69.796875 C38.34314001 72.4647043 44.38819218 72.74357853 50.75 70.875 C55.0411475 69.19719999 58.45891098 66.93835047 62 64 C62 63.34 62 62.68 62 62 C62.66 62 63.32 62 64 62 C69.21751385 55.56172169 71.70192412 48.28270458 71 40 C69.34388432 30.95158613 65.12701617 24.28476797 57.9375 18.5625 C45.19496612 11.78455645 31.35903668 14.88481366 21.625 25.6328125 Z " fill="#0A474C" transform="translate(339,194)"/>
<path d="M0 0 C2.0952159 -0.07657738 4.19123363 -0.13144759 6.28735352 -0.17700195 C7.45444351 -0.20985794 8.62153351 -0.24271393 9.82398987 -0.27656555 C13.17892923 0.01558108 14.20421994 0.3748963 16.40234375 2.83203125 C17.29122397 4.12990029 18.13462772 5.45973684 18.9375 6.8125 C19.9259765 8.28980369 20.91560891 9.76633445 21.90625 11.2421875 C22.65841797 12.41152832 22.65841797 12.41152832 23.42578125 13.60449219 C26.09739634 17.66992135 29.03012557 21.53910265 31.9375 25.4375 C33.107069 27.02842668 34.27633922 28.61957305 35.4453125 30.2109375 C39.55848105 35.77795731 43.76628825 41.27145047 48.00170898 46.74584961 C48.51290283 47.4085083 49.02409668 48.07116699 49.55078125 48.75390625 C50.22620972 49.62511108 50.22620972 49.62511108 50.9152832 50.51391602 C52 52 52 52 53 54 C53.82996826 48.25598243 54.12341665 42.73157957 54.0625 36.93359375 C54.05871338 36.09586929 54.05492676 35.25814484 54.05102539 34.39503479 C54.03891216 31.7424682 54.02029062 29.09001584 54 26.4375 C53.97327009 22.93620052 53.95334471 19.43495757 53.9375 15.93359375 C53.92920166 15.14174179 53.92090332 14.34988983 53.91235352 13.53404236 C53.90905029 12.77958328 53.90574707 12.02512421 53.90234375 11.24780273 C53.89710693 10.59464584 53.89187012 9.94148895 53.88647461 9.26853943 C54.04200148 6.16069873 54.55993495 3.08045535 55 0 C59.95 0 64.9 0 70 0 C70.78525252 4.71151512 71.14318194 8.97683611 71.12939453 13.7019043 C71.13202301 14.82252762 71.13202301 14.82252762 71.13470459 15.96578979 C71.13908204 18.41862354 71.13620054 20.87138436 71.1328125 23.32421875 C71.13348651 25.03481561 71.13445734 26.74541238 71.13571167 28.45600891 C71.13718289 32.03261227 71.13505179 35.60919058 71.13037109 39.18579102 C71.12466118 43.77248713 71.12796442 48.3591249 71.13394356 52.9458189 C71.13755365 56.47421205 71.13640874 60.00259131 71.13381577 63.53098488 C71.13314841 65.2226951 71.13396824 66.91440659 71.13629532 68.60611534 C71.13883058 70.96620412 71.13496945 73.32619763 71.12939453 75.6862793 C71.13141876 76.38607407 71.13344299 77.08586884 71.13552856 77.80686951 C71.12231144 80.82235546 70.96223463 83.1132961 70 86 C67.93933896 86.1357683 65.87607243 86.23233903 63.8125 86.3125 C62.66394531 86.37050781 61.51539063 86.42851562 60.33203125 86.48828125 C54.88862534 85.69059574 52.92418185 82.22530176 49.74609375 78.01171875 C48.97243871 76.90652112 48.2031029 75.79829077 47.4375 74.6875 C43.70703175 69.37357005 39.90114624 64.12754638 36 58.9375 C35.50137451 58.27306885 35.00274902 57.6086377 34.48901367 56.92407227 C32.02439692 53.65084687 29.53849227 50.39653898 27.015625 47.16796875 C26.54898437 46.56927979 26.08234375 45.97059082 25.6015625 45.35375977 C24.7206568 44.22700881 23.83543585 43.10361421 22.9453125 41.98413086 C20 38.22020191 20 38.22020191 20 36 C19.34 36 18.68 36 18 36 C17.67 35.34 17.34 34.68 17 34 C16.67 51.16 16.34 68.32 16 86 C11.05 86 6.1 86 1 86 C-0.7772169 84.2227831 -0.11988099 81.847528 -0.12442017 79.48136902 C-0.12082489 78.69015152 -0.11722961 77.89893402 -0.11352539 77.08374023 C-0.11367142 76.25454071 -0.11381744 75.42534119 -0.1139679 74.5710144 C-0.11326851 71.81684802 -0.10547493 69.06274839 -0.09765625 66.30859375 C-0.09579216 64.40430234 -0.09436822 62.50001045 -0.09336853 60.59571838 C-0.08954263 55.57332037 -0.07971173 50.55095108 -0.06866455 45.52856445 C-0.05845198 40.4077188 -0.05387124 35.28686852 -0.04882812 30.16601562 C-0.03808953 20.11066443 -0.02101224 10.0553346 0 0 Z " fill="#0D5052" transform="translate(260,194)"/>
<path d="M0 0 C0.83402344 -0.00128906 1.66804687 -0.00257813 2.52734375 -0.00390625 C3.39488281 -0.00003906 4.26242188 0.00382813 5.15625 0.0078125 C6.45755859 0.00201172 6.45755859 0.00201172 7.78515625 -0.00390625 C8.61917969 -0.00261719 9.45320313 -0.00132812 10.3125 0 C11.07369141 0.00112793 11.83488281 0.00225586 12.61914062 0.00341797 C14.65625 0.1328125 14.65625 0.1328125 17.65625 1.1328125 C19.53898999 1.1328125 21.42176963 1.13127313 23.30444336 1.11547852 C32.35555649 1.1879691 32.35555649 1.1879691 35.7265625 3.63671875 C37.32816014 6.04826719 38.46623786 8.49139826 39.65625 11.1328125 C40.74731962 13.13258275 41.87738557 15.10738007 43.01025391 17.08374023 C44.20140274 19.16500211 45.36839573 21.25829372 46.53125 23.35546875 C48.77308763 27.37110077 51.16110657 31.2693646 53.65625 35.1328125 C61.66922189 27.68380344 65.90561245 15.82668102 70.65625 6.1328125 C71.31625 4.8128125 71.97625 3.4928125 72.65625 2.1328125 C78.59625 2.1328125 84.53625 2.1328125 90.65625 2.1328125 C89.31814662 6.14712263 88.26195321 9.14610037 86.29296875 12.72265625 C85.82415283 13.57883545 85.35533691 14.43501465 84.87231445 15.31713867 C84.11567505 16.67995972 84.11567505 16.67995972 83.34375 18.0703125 C82.82192139 19.01946533 82.30009277 19.96861816 81.76245117 20.9465332 C77.16915092 29.27499971 72.48542684 37.55307846 67.75854492 45.80639648 C67.23623291 46.72235596 66.7139209 47.63831543 66.17578125 48.58203125 C65.48125854 49.79379028 65.48125854 49.79379028 64.77270508 51.0300293 C62.60009188 55.12202962 62.55058381 58.34744871 62.59375 62.91796875 C62.59753662 63.57486191 62.60132324 64.23175507 62.60522461 64.90855408 C62.6174281 67.00420721 62.6360608 69.09972199 62.65625 71.1953125 C62.68278976 73.95702749 62.70280658 76.71867456 62.71875 79.48046875 C62.73035156 80.70773682 62.74195313 81.93500488 62.75390625 83.19946289 C62.65625 86.1328125 62.65625 86.1328125 61.65625 88.1328125 C59.36515403 88.21356915 57.07325733 88.27188981 54.78125 88.3203125 C52.86699219 88.37251953 52.86699219 88.37251953 50.9140625 88.42578125 C49.83898437 88.32910156 48.76390625 88.23242188 47.65625 88.1328125 C45.26182438 84.54117408 45.49712182 83.22304257 45.70703125 78.98828125 C46.78580008 60.57578072 46.78580008 60.57578072 39.88085938 43.97705078 C37.81976512 40.87308228 36.05005188 37.60399564 34.22607422 34.35693359 C32.68077796 31.61385249 31.10488571 28.89032955 29.5234375 26.16796875 C27.78253125 23.147786 26.10452809 20.11861099 24.5390625 17.00390625 C23.66894531 15.27333984 23.66894531 15.27333984 22.78125 13.5078125 C22.30945313 12.52554688 21.83765625 11.54328125 21.3515625 10.53125 C19.21924817 7.51456567 17.02608855 6.5314363 13.65625 5.1328125 C13.65625 5.7928125 13.65625 6.4528125 13.65625 7.1328125 C14.31625 7.1328125 14.97625 7.1328125 15.65625 7.1328125 C17.94320198 10.77104196 17.91418353 13.86246544 17.921875 18.1015625 C17.92378845 18.77771606 17.9257019 19.45386963 17.92767334 20.1505127 C17.92903222 21.58276745 17.92535652 23.01503465 17.91699219 24.44726562 C17.90642134 26.59795268 17.91682707 28.74777864 17.9296875 30.8984375 C17.95560497 52.23962546 17.95560497 52.23962546 14.20800781 56.95507812 C12.65625 58.1328125 12.65625 58.1328125 10.65625 58.1328125 C10.65625 70.6728125 10.65625 83.2128125 10.65625 96.1328125 C10.32625 96.1328125 9.99625 96.1328125 9.65625 96.1328125 C9.63119385 95.02768311 9.6061377 93.92255371 9.58032227 92.78393555 C9.48618491 88.68567206 9.38597959 84.58757556 9.28393555 80.48950195 C9.24061066 78.71545313 9.19893381 76.94136327 9.15893555 75.16723633 C9.1011738 72.61787545 9.03749638 70.0687207 8.97265625 67.51953125 C8.95594376 66.72568527 8.93923126 65.93183929 8.92201233 65.11393738 C8.83507282 61.88598173 8.68374634 59.21530151 7.65625 56.1328125 C4.65617729 54.42426228 4.65617729 54.42426228 1.65625 53.1328125 C1.65625 54.7828125 1.65625 56.4328125 1.65625 58.1328125 C-2.27791444 56.64054323 -3.5942475 54.9360788 -5.34375 51.1328125 C-6.01069522 47.38043437 -6.27556401 43.62025405 -6.53125 39.8203125 C-6.61020508 38.75393555 -6.68916016 37.68755859 -6.77050781 36.58886719 C-8.47162075 12.14733545 -8.47162075 12.14733545 -5.34375 7.1328125 C-7.32375 6.4728125 -9.30375 5.8128125 -11.34375 5.1328125 C-7.7131025 1.25177552 -5.29543015 0.00784674 0 0 Z M-1.34375 9.1328125 C-3.52060386 13.4613057 -3.50986024 17.2283564 -3.15625 21.9453125 C-3.10654053 22.68362305 -3.05683105 23.42193359 -3.00561523 24.18261719 C-2.30127689 33.3012314 -1.48197478 43.90217355 2.65625 52.1328125 C5.10164786 53.20553812 5.10164786 53.20553812 7.65625 53.1328125 C10.34662084 50.44244166 10.45977876 48.21922158 11.21875 44.5078125 C11.46753906 43.31929687 11.71632812 42.13078125 11.97265625 40.90625 C13.22612167 33.98712086 13.83755681 27.33719705 13.84375 20.3203125 C13.86211914 19.19592773 13.86211914 19.19592773 13.88085938 18.04882812 C13.89116377 14.20529022 13.83817729 12.40570343 11.65625 9.1328125 C8.53067041 8.76751018 8.53067041 8.76751018 5.03125 8.9453125 C3.84273437 8.97238281 2.65421875 8.99945313 1.4296875 9.02734375 C0.05683594 9.07955078 0.05683594 9.07955078 -1.34375 9.1328125 Z " fill="#1D6C6B" transform="translate(167.34375,191.8671875)"/>
<path d="M0 0 C5.57985318 1.45561387 5.57985318 1.45561387 7.17651367 3.52441406 C8.42592603 7.28042987 8.30510496 10.92560724 8.30078125 14.859375 C8.30506638 15.72258362 8.3093515 16.58579224 8.31376648 17.47515869 C8.31950371 19.30081304 8.32001451 21.12649024 8.31567383 22.95214844 C8.31252687 25.72631586 8.33593481 28.49940285 8.36132812 31.2734375 C8.36360268 33.052082 8.36430389 34.83072934 8.36328125 36.609375 C8.372491 37.43048767 8.38170074 38.25160034 8.39118958 39.09759521 C8.34074896 45.47325679 7.35626787 51.22279721 3.09765625 56.2421875 C2.42605469 56.78101563 1.75445312 57.31984375 1.0625 57.875 C0.05896484 58.70644531 0.05896484 58.70644531 -0.96484375 59.5546875 C-6.77360308 63.67991006 -11.99857107 63.71094201 -19 63 C-25.24637916 61.26720046 -29.45231313 57.31567604 -33 52 C-37.51762126 42.53450783 -36.12867886 30.00913491 -36.0625 19.8125 C-36.05746963 18.46549648 -36.05290947 17.11849111 -36.04882812 15.77148438 C-36.03715354 12.51427463 -36.02077883 9.25716222 -36 6 C-35.67 6 -35.34 6 -35 6 C-34.67 13.59 -34.34 21.18 -34 29 C-33.34 29.33 -32.68 29.66 -32 30 C-32 30.66 -32 31.32 -32 32 C-29.36 32.33 -26.72 32.66 -24 33 C-23.67 23.1 -23.34 13.2 -23 3 C-22.67 3 -22.34 3 -22 3 C-22 13.56 -22 24.12 -22 35 C-24.475 35.495 -24.475 35.495 -27 36 C-27.44066916 41.39819717 -27.44748493 45.86030553 -24.39453125 50.48828125 C-21.74895812 53.35617145 -18.73640304 54.95044859 -15 56 C-10.71184502 55.85463881 -6.74949908 55.1425709 -3 53 C-1.64937513 50.92876584 -1.64937513 50.92876584 -1 48 C-0.81566406 47.33226562 -0.63132813 46.66453125 -0.44140625 45.9765625 C2.09698461 35.43786388 1.14652789 24.48165591 0.5625 13.75 C0.52342529 13.02288818 0.48435059 12.29577637 0.4440918 11.54663086 C0.2550194 8.4929128 -0.02746112 5.91761665 -1 3 C-0.67 2.01 -0.34 1.02 0 0 Z " fill="#2F3D44" transform="translate(169,245)"/>
<path d="M0 0 C0.83402344 -0.00128906 1.66804687 -0.00257813 2.52734375 -0.00390625 C3.39488281 -0.00003906 4.26242188 0.00382813 5.15625 0.0078125 C6.45755859 0.00201172 6.45755859 0.00201172 7.78515625 -0.00390625 C8.61917969 -0.00261719 9.45320313 -0.00132812 10.3125 0 C11.07369141 0.00112793 11.83488281 0.00225586 12.61914062 0.00341797 C14.65625 0.1328125 14.65625 0.1328125 17.65625 1.1328125 C18.34375 3.1953125 18.34375 3.1953125 18.65625 5.1328125 C17.00625 5.1328125 15.35625 5.1328125 13.65625 5.1328125 C13.65625 5.7928125 13.65625 6.4528125 13.65625 7.1328125 C14.31625 7.1328125 14.97625 7.1328125 15.65625 7.1328125 C17.94320198 10.77104196 17.91418353 13.86246544 17.921875 18.1015625 C17.92378845 18.77771606 17.9257019 19.45386963 17.92767334 20.1505127 C17.92903222 21.58276745 17.92535652 23.01503465 17.91699219 24.44726562 C17.90642134 26.59795268 17.91682707 28.74777864 17.9296875 30.8984375 C17.95560497 52.23962546 17.95560497 52.23962546 14.20800781 56.95507812 C12.65625 58.1328125 12.65625 58.1328125 10.65625 58.1328125 C10.65625 70.6728125 10.65625 83.2128125 10.65625 96.1328125 C10.32625 96.1328125 9.99625 96.1328125 9.65625 96.1328125 C9.63119385 95.02768311 9.6061377 93.92255371 9.58032227 92.78393555 C9.48618491 88.68567206 9.38597959 84.58757556 9.28393555 80.48950195 C9.24061066 78.71545313 9.19893381 76.94136327 9.15893555 75.16723633 C9.1011738 72.61787545 9.03749638 70.0687207 8.97265625 67.51953125 C8.95594376 66.72568527 8.93923126 65.93183929 8.92201233 65.11393738 C8.83507282 61.88598173 8.68374634 59.21530151 7.65625 56.1328125 C4.65617729 54.42426228 4.65617729 54.42426228 1.65625 53.1328125 C1.65625 54.7828125 1.65625 56.4328125 1.65625 58.1328125 C-2.27791444 56.64054323 -3.5942475 54.9360788 -5.34375 51.1328125 C-6.01069522 47.38043437 -6.27556401 43.62025405 -6.53125 39.8203125 C-6.61020508 38.75393555 -6.68916016 37.68755859 -6.77050781 36.58886719 C-8.47162075 12.14733545 -8.47162075 12.14733545 -5.34375 7.1328125 C-7.32375 6.4728125 -9.30375 5.8128125 -11.34375 5.1328125 C-7.7131025 1.25177552 -5.29543015 0.00784674 0 0 Z M-1.34375 9.1328125 C-3.52060386 13.4613057 -3.50986024 17.2283564 -3.15625 21.9453125 C-3.10654053 22.68362305 -3.05683105 23.42193359 -3.00561523 24.18261719 C-2.30127689 33.3012314 -1.48197478 43.90217355 2.65625 52.1328125 C5.10164786 53.20553812 5.10164786 53.20553812 7.65625 53.1328125 C10.34662084 50.44244166 10.45977876 48.21922158 11.21875 44.5078125 C11.46753906 43.31929687 11.71632812 42.13078125 11.97265625 40.90625 C13.22612167 33.98712086 13.83755681 27.33719705 13.84375 20.3203125 C13.86211914 19.19592773 13.86211914 19.19592773 13.88085938 18.04882812 C13.89116377 14.20529022 13.83817729 12.40570343 11.65625 9.1328125 C8.53067041 8.76751018 8.53067041 8.76751018 5.03125 8.9453125 C3.84273437 8.97238281 2.65421875 8.99945313 1.4296875 9.02734375 C0.05683594 9.07955078 0.05683594 9.07955078 -1.34375 9.1328125 Z " fill="#555458" transform="translate(167.34375,191.8671875)"/>
<path d="M0 0 C3.30510022 1.02053325 3.30510022 1.02053325 6.4375 0 C10.89354661 -0.36524972 13.38205674 -0.53894975 17.375 1.5 C20.12376779 4.83183974 20.79682499 7.78392012 20.4375 12 C18.43890599 17.29627413 14.81914007 20.94839386 10.9375 25 C10.46280273 25.50571533 9.98810547 26.01143066 9.49902344 26.5324707 C6.03527975 29.99561263 6.03527975 29.99561263 3.30859375 30.015625 C1.13363612 28.83506345 -0.30314974 27.55265847 -2 25.75 C-2.60199219 25.11707031 -3.20398438 24.48414063 -3.82421875 23.83203125 C-4.39785156 23.22746094 -4.97148437 22.62289062 -5.5625 22 C-6.47 21.154375 -7.3775 20.30875 -8.3125 19.4375 C-11.63499534 15.83813005 -13.5625 12.91919033 -13.5625 7.9375 C-12.3004396 4.23019756 -10.54966784 2.48930653 -7.5625 0 C-4.25521502 -1.10242833 -3.26645783 -0.8610103 0 0 Z M-8.5625 6 C-8.90753098 9.72633459 -9.04798923 12.13936 -7.1875 15.4375 C-5.69794499 17.23103624 -5.69794499 17.23103624 -3.5625 17 C-3.5625 17.66 -3.5625 18.32 -3.5625 19 C-2.9025 19 -2.2425 19 -1.5625 19 C-1.5625 19.66 -1.5625 20.32 -1.5625 21 C-0.9025 21 -0.2425 21 0.4375 21 C0.4375 21.66 0.4375 22.32 0.4375 23 C1.7575 23.66 3.0775 24.32 4.4375 25 C5.81312854 23.71034824 7.14516393 22.37310707 8.4375 21 C8.4375 20.34 8.4375 19.68 8.4375 19 C9.035625 18.7525 9.63375 18.505 10.25 18.25 C12.88246795 16.7457326 13.9915968 15.67492092 15.4375 13 C15.85442853 9.41600593 15.85442853 9.41600593 15.4375 6 C13.55611241 3.71069764 13.55611241 3.71069764 10.5 3.625 C7.35018527 3.66427639 7.35018527 3.66427639 5.75 5.9375 C5.1003125 6.9584375 5.1003125 6.9584375 4.4375 8 C3.4475 8.33 2.4575 8.66 1.4375 9 C1.293125 8.360625 1.14875 7.72125 1 7.0625 C0.62742819 5.02454854 0.62742819 5.02454854 -0.5625 4 C-5.06135769 3.53277305 -5.06135769 3.53277305 -8.5625 6 Z " fill="#3F5256" transform="translate(378.5625,223)"/>
<path d="M0 0 C5.58996656 1.45825215 5.58996656 1.45825215 7.17651367 3.55444336 C8.38007426 7.12872927 8.30514375 10.6488752 8.30078125 14.37890625 C8.30506638 15.1873851 8.3093515 15.99586395 8.31376648 16.82884216 C8.31949872 18.53424138 8.32001819 20.23966504 8.31567383 21.94506836 C8.31250679 24.55689947 8.33601008 27.16760515 8.36132812 29.77929688 C8.3636005 31.43749857 8.3643049 33.09570331 8.36328125 34.75390625 C8.372491 35.53520401 8.38170074 36.31650177 8.39118958 37.12147522 C8.34477352 42.54367398 8.34477352 42.54367398 6.47729492 45.01538086 C5.9897876 45.34030518 5.50228027 45.66522949 5 46 C4.01 45.67 3.02 45.34 2 45 C1.23572706 40.30688651 0.91535237 35.87584821 1 31.125 C1.04059482 25.31414126 0.89592771 19.55139338 0.5625 13.75 C0.52318359 13.02312988 0.48386719 12.29625977 0.44335938 11.54736328 C0.25540809 8.49315498 -0.0273427 5.91797189 -1 3 C-0.67 2.01 -0.34 1.02 0 0 Z " fill="#091B23" transform="translate(169,245)"/>
<path d="M0 0 C5.28 0 10.56 0 16 0 C15.67 0.99 15.34 1.98 15 3 C12.36 3 9.72 3 7 3 C7.70616258 9.88508516 10.0683687 16.13412378 15 21 C16.05047644 23.31104818 17.05007438 25.64583651 18 28 C18.391875 28.7425 18.78375 29.485 19.1875 30.25 C20 32 20 32 20 35 C21.485 35.495 21.485 35.495 23 36 C23.70381157 37.98723268 24.3711811 39.98777953 25 42 C25.66 42.33 26.32 42.66 27 43 C27 43.99 27 44.98 27 46 C27.66 46 28.32 46 29 46 C31.70666797 51.01749912 31.25795724 56.15104444 31.1875 61.6875 C31.18685547 62.63044922 31.18621094 63.57339844 31.18554688 64.54492188 C31.14717564 70.74827149 30.73012248 76.8405893 30 83 C29.34 83 28.68 83 28 83 C28.03665771 82.19481934 28.07331543 81.38963867 28.11108398 80.56005859 C29.46864028 60.25644516 29.46864028 60.25644516 22.22460938 41.84423828 C20.16347943 38.74021603 18.39378557 35.47099357 16.56933594 32.22412109 C15.02512414 29.48211216 13.45310834 26.75776651 11.875 24.03515625 C8.91862193 18.90298426 6.16558505 13.68795784 3.5 8.3984375 C1.93427601 5.89491008 0.46681711 4.58429202 -2 3 C-1.01 3 -0.02 3 1 3 C0.67 2.01 0.34 1.02 0 0 Z " fill="#205353" transform="translate(185,194)"/>
<path d="M0 0 C0.33 0 0.66 0 1 0 C1 10.56 1 21.12 1 32 C-2.465 32.495 -2.465 32.495 -6 33 C-5.91621094 34.05960937 -5.83242187 35.11921875 -5.74609375 36.2109375 C-5.64293168 37.59893625 -5.54008337 38.98695835 -5.4375 40.375 C-5.38142578 41.07367188 -5.32535156 41.77234375 -5.26757812 42.4921875 C-4.88671875 47.7734375 -4.88671875 47.7734375 -6 50 C-7.875 49.875 -7.875 49.875 -10 49 C-14.64146838 39.71706324 -13.12771637 26.86083833 -13.0625 16.8125 C-13.05746963 15.46549648 -13.05290947 14.11849111 -13.04882812 12.77148438 C-13.03715354 9.51427463 -13.02077883 6.25716222 -13 3 C-12.67 3 -12.34 3 -12 3 C-11.67 10.59 -11.34 18.18 -11 26 C-10.34 26.33 -9.68 26.66 -9 27 C-9 27.66 -9 28.32 -9 29 C-6.36 29.33 -3.72 29.66 -1 30 C-0.67 20.1 -0.34 10.2 0 0 Z " fill="#062D32" transform="translate(146,248)"/>
<path d="M0 0 C5.28 0 10.56 0 16 0 C16 28.38 16 56.76 16 86 C15.67 86 15.34 86 15 86 C14.99191315 85.0486618 14.98382629 84.09732361 14.97549438 83.11715698 C14.89793575 74.14206042 14.81017199 65.16711363 14.71247292 56.19221306 C14.66257395 51.57836781 14.61624338 46.96454475 14.578125 42.35058594 C14.54119131 37.89603322 14.49480949 33.44166903 14.44193649 28.98727798 C14.42343546 27.28970784 14.40831173 25.59209735 14.39665604 23.8944664 C14.37971992 21.51261938 14.35066773 19.1312001 14.31884766 16.74951172 C14.31668747 16.05107651 14.31452728 15.3526413 14.31230164 14.63304138 C14.24031783 10.40216645 13.53478133 6.93948713 12 3 C7.545 3.495 7.545 3.495 3 4 C3.20625 5.11375 3.4125 6.2275 3.625 7.375 C3.74875 8.57125 3.8725 9.7675 4 11 C3.34 11.66 2.68 12.32 2 13 C1.62864085 15.52037964 1.62864085 15.52037964 1.5859375 18.4453125 C1.54726562 19.52167969 1.50859375 20.59804687 1.46875 21.70703125 C1.4378125 22.83496094 1.406875 23.96289062 1.375 25.125 C1.33632812 26.26066406 1.29765625 27.39632812 1.2578125 28.56640625 C1.16332399 31.37743956 1.07776459 34.18846233 1 37 C0.67 37 0.34 37 0 37 C0 24.79 0 12.58 0 0 Z " fill="#2E5D5B" transform="translate(132,194)"/>
<path d="M0 0 C0.33 0 0.66 0 1 0 C1.12539528 10.12915223 0.99060989 20.2496689 0.6875 30.375 C0.66502197 31.47448975 0.64254395 32.57397949 0.61938477 33.70678711 C0.58385498 34.73940674 0.5483252 35.77202637 0.51171875 36.8359375 C0.48553467 37.75938965 0.45935059 38.6828418 0.43237305 39.63427734 C-0.07301175 42.39948268 -0.76013892 43.34473408 -3 45 C-3.66 45 -4.32 45 -5 45 C-5 57.54 -5 70.08 -5 83 C-5.33 83 -5.66 83 -6 83 C-6.02505615 81.89487061 -6.0501123 80.78974121 -6.07592773 79.65112305 C-6.17006509 75.55285956 -6.27027041 71.45476306 -6.37231445 67.35668945 C-6.41563934 65.58264063 -6.45731619 63.80855077 -6.49731445 62.03442383 C-6.5550762 59.48506295 -6.61875362 56.9359082 -6.68359375 54.38671875 C-6.70030624 53.59287277 -6.71701874 52.79902679 -6.73423767 51.98112488 C-6.82117718 48.75316923 -6.97250366 46.08248901 -8 43 C-8.99 42.34 -9.98 41.68 -11 41 C-10.401875 40.690625 -9.80375 40.38125 -9.1875 40.0625 C-5.89852354 36.96146506 -5.23457159 33.25316695 -4 29 C-3.49726563 27.73736328 -3.49726563 27.73736328 -2.984375 26.44921875 C-1.54435665 21.40344017 -1.26702763 16.34346617 -0.875 11.125 C-0.78863281 10.05507812 -0.70226562 8.98515625 -0.61328125 7.8828125 C-0.40217102 5.25566301 -0.19795597 2.62816789 0 0 Z " fill="#566066" transform="translate(183,205)"/>
<path d="M0 0 C0.33 0 0.66 0 1 0 C1.33 11.55 1.66 23.1 2 35 C4.97 35.33 7.94 35.66 11 36 C11.33 34.68 11.66 33.36 12 32 C11.34 31.67 10.68 31.34 10 31 C10.10979085 27.39520054 10.24044045 23.79145321 10.375 20.1875 C10.4059375 19.16333984 10.436875 18.13917969 10.46875 17.08398438 C10.50742187 16.10107422 10.54609375 15.11816406 10.5859375 14.10546875 C10.6173584 13.19949951 10.6487793 12.29353027 10.68115234 11.36010742 C11 9 11 9 13 6 C13 16.56 13 27.12 13 38 C8.38 38 3.76 38 -1 38 C-2 37 -2 37 -2.03759766 33.70532227 C-2.0020446 32.24220275 -1.96041742 30.77922338 -1.9140625 29.31640625 C-1.89282318 28.54570297 -1.87158386 27.77499969 -1.84970093 26.98094177 C-1.8033559 25.34749144 -1.75442118 23.71411289 -1.703125 22.08081055 C-1.62544402 19.57681256 -1.55822707 17.07268835 -1.4921875 14.56835938 C-1.44594231 12.98435649 -1.39908755 11.40037125 -1.3515625 9.81640625 C-1.33171295 9.0642836 -1.3118634 8.31216095 -1.29141235 7.5372467 C-1.11505585 2.23011171 -1.11505585 2.23011171 0 0 Z " fill="#053135" transform="translate(262,242)"/>
<path d="M0 0 C1.21236328 0.04060547 1.21236328 0.04060547 2.44921875 0.08203125 C3.06410156 0.11683594 3.67898437 0.15164062 4.3125 0.1875 C4.3125 0.5175 4.3125 0.8475 4.3125 1.1875 C3.03375 1.435 1.755 1.6825 0.4375 1.9375 C-2.73039734 2.68414902 -2.73039734 2.68414902 -5.0625 4.8125 C-5.371875 5.988125 -5.371875 5.988125 -5.6875 7.1875 C-5.86796875 7.86039063 -6.0484375 8.53328125 -6.234375 9.2265625 C-6.75175815 11.20520345 -7.22277764 13.19583274 -7.6875 15.1875 C-8.3475 15.1875 -9.0075 15.1875 -9.6875 15.1875 C-9.6875 16.5075 -9.6875 17.8275 -9.6875 19.1875 C-10.3475 19.1875 -11.0075 19.1875 -11.6875 19.1875 C-12.76446789 21.32167491 -13.81700031 23.4623578 -14.8359375 25.625 C-19.11718995 34.56927263 -19.11718995 34.56927263 -22.6875 37.1875 C-23.6775 37.1875 -24.6675 37.1875 -25.6875 37.1875 C-26.3475 35.5375 -27.0075 33.8875 -27.6875 32.1875 C-26.93082031 32.12691406 -26.17414063 32.06632812 -25.39453125 32.00390625 C-21.73003632 30.89874111 -21.17993555 29.45270996 -19.375 26.125 C-18.78589844 25.0525 -18.19679687 23.98 -17.58984375 22.875 C-15.11751365 18.1405852 -12.73853566 13.35414921 -10.44018555 8.53295898 C-6.17923008 -0.26866218 -6.17923008 -0.26866218 0 0 Z " fill="#185959" transform="translate(245.6875,194.8125)"/>
<path d="M0 0 C4.95 0 9.9 0 15 0 C15.33 3.3 15.66 6.6 16 10 C16.804375 9.236875 17.60875 8.47375 18.4375 7.6875 C22.15316402 4.60729396 26.19720598 2.68350959 31 2 C33.5625 3.3125 33.5625 3.3125 35 5 C34.113125 5.103125 33.22625 5.20625 32.3125 5.3125 C28.92907415 6.01472046 26.88053577 7.1596577 24 9 C23.34 9 22.68 9 22 9 C22 9.66 22 10.32 22 11 C19.73996287 13.17633205 18.46641828 13.95661225 15.3125 14.25 C13 14 13 14 12 13 C12 10.96994518 12.00357588 8.93935573 12.0625 6.91015625 C12.13026339 4.912423 12.13026339 4.912423 11 3 C8.02934491 3.34227572 8.02934491 3.34227572 5 4 C4.67 4.66 4.34 5.32 4 6 C3.01 5.67 2.02 5.34 1 5 C0.67 6.98 0.34 8.96 0 11 C-0.33 11 -0.66 11 -1 11 C-1.0270043 9.54176788 -1.04639787 8.08339325 -1.0625 6.625 C-1.07410156 5.81289062 -1.08570313 5.00078125 -1.09765625 4.1640625 C-1 2 -1 2 0 0 Z " fill="#1A4949" transform="translate(339,194)"/>
<path d="M0 0 C8.375 0 8.375 0 12 1 C13.17661508 4.67692213 13.14475933 8.1638778 13 12 C12 13 12 13 9.53125 13.1328125 C8.03078125 13.12894531 8.03078125 13.12894531 6.5 13.125 C5.4996875 13.12757813 4.499375 13.13015625 3.46875 13.1328125 C1 13 1 13 0 12 C-0.07244053 9.98035801 -0.08377188 7.95832876 -0.0625 5.9375 C-0.05347656 4.83277344 -0.04445313 3.72804688 -0.03515625 2.58984375 C-0.02355469 1.73519531 -0.01195312 0.88054687 0 0 Z " fill="#0C2731" transform="translate(276,291)"/>
<path d="M0 0 C1.32 0.33 2.64 0.66 4 1 C3.34 1 2.68 1 2 1 C2 1.66 2 2.32 2 3 C2.66 3 3.32 3 4 3 C6.32717671 6.67321526 6.24434064 9.82595354 6.23046875 14.109375 C6.22978142 15.13783539 6.22978142 15.13783539 6.2290802 16.18707275 C6.22606537 17.63612602 6.21820207 19.08517627 6.20581055 20.53417969 C6.18767655 22.72863541 6.1853003 24.92266499 6.18554688 27.1171875 C6.16217153 33.83424209 5.92478067 40.34526906 5 47 C4.67 47 4.34 47 4 47 C4 39.08 4 31.16 4 23 C3.71125 25.289375 3.4225 27.57875 3.125 29.9375 C2.82669794 32.30260921 2.46806645 34.66255706 2 37 C1.01 37.495 1.01 37.495 0 38 C0.0721875 37.25878906 0.144375 36.51757812 0.21875 35.75390625 C0.80386184 29.11451219 1.107854 22.53836252 1.125 15.875 C1.12951172 15.14095947 1.13402344 14.40691895 1.13867188 13.65063477 C1.12986014 10.49860302 1.00405709 8.01217127 0 5 C-1.546875 5.2784375 -1.546875 5.2784375 -3.125 5.5625 C-6.76148442 5.97307082 -9.45437009 5.778309 -13 5 C-13 4.67 -13 4.34 -13 4 C-8.38 4 -3.76 4 1 4 C0.67 2.68 0.34 1.36 0 0 Z " fill="#63696D" transform="translate(179,196)"/>
<path d="M0 0 C1.11375 0.2475 1.11375 0.2475 2.25 0.5 C5.1901366 1.03457029 7.11816915 0.64040686 10 0 C11 1 11 1 11.09765625 3.50390625 C11.08605469 4.51324219 11.07445312 5.52257812 11.0625 6.5625 C11.05347656 7.57441406 11.04445312 8.58632813 11.03515625 9.62890625 C11.02355469 10.41136719 11.01195312 11.19382812 11 12 C7.24598656 12.80443145 3.85012111 13.17500551 0 13 C-1 12 -1 12 -1.1328125 9.53125 C-1.13023437 8.5309375 -1.12765625 7.530625 -1.125 6.5 C-1.12757813 5.4996875 -1.13015625 4.499375 -1.1328125 3.46875 C-1 1 -1 1 0 0 Z " fill="#0A2731" transform="translate(186,291)"/>
<path d="M0 0 C0.33 0 0.66 0 1 0 C1 10.23 1 20.46 1 31 C-0.66666667 31 -2.33333333 31 -4 31 C-4.81708725 25.97981594 -5.18262369 21.0908629 -5.1875 16 C-5.19974609 15.32710938 -5.21199219 14.65421875 -5.22460938 13.9609375 C-5.23830734 9.230575 -4.46283512 5.44054298 -3 1 C-2.67 1.99 -2.34 2.98 -2 4 C-1.34 4 -0.68 4 0 4 C0 2.68 0 1.36 0 0 Z " fill="#04161D" transform="translate(175,259)"/>
<path d="M0 0 C6.34507042 -0.35915493 6.34507042 -0.35915493 8.9375 1.0625 C10.63335287 4.15493758 10.43060657 6.55514741 10 10 C8.4375 12 8.4375 12 6 13 C2.375 12.875 2.375 12.875 -1 12 C-3.56687367 8.1496895 -2.83288724 6.41430237 -2 2 C-1.34 2 -0.68 2 0 2 C0 1.34 0 0.68 0 0 Z " fill="#2A444E" transform="translate(250,291)"/>
<path d="M0 0 C0.598125 0.165 1.19625 0.33 1.8125 0.5 C4.25988354 1.05940195 5.63996734 0.75858193 8 0 C10.60018816 3.90028225 10.15085514 7.47434569 10 12 C5.97959015 12.69584017 2.91736581 13.1700097 -1 12 C-1.02687279 10.18757948 -1.04633715 8.37504767 -1.0625 6.5625 C-1.07410156 5.55316406 -1.08570313 4.54382813 -1.09765625 3.50390625 C-1 1 -1 1 0 0 Z " fill="#233B3E" transform="translate(218,291)"/>
<path d="M0 0 C0.7425 0.763125 1.485 1.52625 2.25 2.3125 C4.76518989 4.92174394 4.76518989 4.92174394 7.01953125 6.39453125 C9.26764407 8.2169659 10.16449262 9.79374628 11.4375 12.375 C13.48960544 16.27715742 15.78460184 18.95383333 19 22 C20.05287814 23.63377642 21.0727001 25.29181597 22 27 C22.86625 26.814375 23.7325 26.62875 24.625 26.4375 C28.05152628 25.99332067 30.64212371 26.28045508 34 27 C34 27.99 34 28.98 34 30 C31.93933896 30.1357683 29.87607243 30.23233903 27.8125 30.3125 C26.66394531 30.37050781 25.51539063 30.42851562 24.33203125 30.48828125 C19.42549394 29.76926933 17.70232788 27.21319563 14.77319336 23.4050293 C13.50309962 21.68710917 12.27817542 19.94429633 11.0625 18.1875 C10.19235651 16.94464667 9.32126646 15.70245548 8.44921875 14.4609375 C8.0320459 13.86635742 7.61487305 13.27177734 7.18505859 12.65917969 C5.20324242 9.88447374 3.09493085 7.20943042 0.9609375 4.55078125 C0 3 0 3 0 0 Z " fill="#133A3D" transform="translate(296,250)"/>
<path d="M0 0 C1.47906892 -0.02689216 2.95827483 -0.04634621 4.4375 -0.0625 C5.26121094 -0.07410156 6.08492188 -0.08570313 6.93359375 -0.09765625 C9 0 9 0 10 1 C10.07244053 3.01964199 10.08377188 5.04167124 10.0625 7.0625 C10.05347656 8.16722656 10.04445313 9.27195312 10.03515625 10.41015625 C10.02355469 11.26480469 10.01195312 12.11945313 10 13 C8.52093108 13.02689216 7.04172517 13.04634621 5.5625 13.0625 C4.32693359 13.07990234 4.32693359 13.07990234 3.06640625 13.09765625 C1 13 1 13 0 12 C-0.07244053 9.98035801 -0.08377188 7.95832876 -0.0625 5.9375 C-0.05347656 4.83277344 -0.04445313 3.72804688 -0.03515625 2.58984375 C-0.02355469 1.73519531 -0.01195312 0.88054687 0 0 Z " fill="#334850" transform="translate(303,291)"/>
<path d="M0 0 C1.5131898 0.04235908 3.02608912 0.09602971 4.53857422 0.15869141 C5.33480194 0.18371735 6.13102966 0.20874329 6.9513855 0.23452759 C9.49910476 0.31682088 12.04605946 0.41337293 14.59326172 0.51025391 C16.31849072 0.56848402 18.04375126 0.6257875 19.76904297 0.68212891 C24.00255709 0.82241331 28.23543979 0.97548903 32.46826172 1.13525391 C32.46826172 1.46525391 32.46826172 1.79525391 32.46826172 2.13525391 C20.91826172 2.13525391 9.36826172 2.13525391 -2.53173828 2.13525391 C-2.86173828 13.35525391 -3.19173828 24.57525391 -3.53173828 36.13525391 C-8.15173828 36.13525391 -12.77173828 36.13525391 -17.53173828 36.13525391 C-17.53173828 35.80525391 -17.53173828 35.47525391 -17.53173828 35.13525391 C-13.57173828 35.13525391 -9.61173828 35.13525391 -5.53173828 35.13525391 C-5.54221191 34.14605957 -5.55268555 33.15686523 -5.56347656 32.13769531 C-5.59962847 28.47383227 -5.6226211 24.80998504 -5.64160156 21.14599609 C-5.65167016 19.55905508 -5.66532595 17.97213266 -5.68261719 16.38525391 C-5.70682829 14.10656144 -5.7182125 11.82811385 -5.72705078 9.54931641 C-5.73737335 8.83780426 -5.74769592 8.12629211 -5.7583313 7.39321899 C-5.7587325 5.63893725 -5.65376037 3.88528682 -5.53173828 2.13525391 C-3.53173828 0.13525391 -3.53173828 0.13525391 0 0 Z " fill="#072E32" transform="translate(100.53173828125,242.86474609375)"/>
<path d="M0 0 C0.33 0 0.66 0 1 0 C1.09733092 7.09434233 1.10087193 13.98194143 0 21 C2.97 20.34 5.94 19.68 9 19 C9.14308594 18.28457031 9.28617188 17.56914062 9.43359375 16.83203125 C10.2890625 12.5546875 11.14453125 8.27734375 12 4 C12.33 4 12.66 4 13 4 C13.02690104 6.79173055 13.04679053 9.58320348 13.0625 12.375 C13.07087891 13.1690625 13.07925781 13.963125 13.08789062 14.78125 C13.11328125 20.7734375 13.11328125 20.7734375 12 23 C7.38 23 2.76 23 -2 23 C-3.00179271 19.99462188 -3.02280232 18.65208484 -2.6953125 15.5859375 C-2.60636719 14.74289062 -2.51742187 13.89984375 -2.42578125 13.03125 C-2.27689453 11.71640625 -2.27689453 11.71640625 -2.125 10.375 C-2.03347656 9.49070312 -1.94195312 8.60640625 -1.84765625 7.6953125 C-1.13305454 1.13305454 -1.13305454 1.13305454 0 0 Z " fill="#2F7572" transform="translate(217,257)"/>
<path d="M0 0 C0.66 0 1.32 0 2 0 C3.28916888 6.83863804 3.0743971 13.62497053 3 20.5625 C2.97437639 22.959589 2.95338409 25.35673293 2.9375 27.75390625 C2.92589844 28.80908447 2.91429688 29.8642627 2.90234375 30.95141602 C3.00165547 34.05167969 3.46700987 36.94843261 4 40 C3.94004762 42.23186351 3.80938199 44.46245791 3.625 46.6875 C3.52574219 47.98171875 3.42648438 49.2759375 3.32421875 50.609375 C3.24373291 51.65641602 3.24373291 51.65641602 3.16162109 52.72460938 C2.86086206 56.95886046 2.65322574 61.19821063 2.4375 65.4375 C2.39383301 66.28465576 2.35016602 67.13181152 2.30517578 68.00463867 C2.20250315 70.003044 2.10110743 72.00151487 2 74 C1.67 74 1.34 74 1 74 C0.16161412 49.3255899 -0.13430821 24.68791553 0 0 Z " fill="#083230" transform="translate(81,199)"/>
<path d="M0 0 C0.33 0 0.66 0 1 0 C1.33 1.65 1.66 3.3 2 5 C2.99 5.33 3.98 5.66 5 6 C5.66 5.34 6.32 4.68 7 4 C6.18131304 11.21781154 3.70811439 16.33434748 -2 21 C-2.99 21 -3.98 21 -5 21 C-4.67 19.35 -4.34 17.7 -4 16 C-4.99 15.67 -5.98 15.34 -7 15 C-6.01 14.67 -5.02 14.34 -4 14 C-1.70941178 9.68830453 -0.97235324 4.74798018 0 0 Z " fill="#213038" transform="translate(170,284)"/>
<path d="M0 0 C0.33 0 0.66 0 1 0 C1.01981934 0.77375977 1.03963867 1.54751953 1.06005859 2.34472656 C1.57258008 22.76852701 1.57258008 22.76852701 3.51513672 43.09472656 C4.20437631 48.69343553 4.20437631 48.69343553 2 52 C1.61500109 53.65549531 1.27206865 55.3222433 1 57 C0.67 56.34 0.34 55.68 0 55 C-0.66 55 -1.32 55 -2 55 C-2.33 53.68 -2.66 52.36 -3 51 C-2.01 51 -1.02 51 0 51 C-0.01474869 50.39056549 -0.02949738 49.78113098 -0.04469299 49.15322876 C-0.19676863 42.82722134 -0.34160368 36.50107793 -0.48217773 30.17480469 C-0.53564586 27.8118059 -0.59097883 25.44884855 -0.64819336 23.0859375 C-0.72997008 19.69540344 -0.80510471 16.30477834 -0.87890625 12.9140625 C-0.90594131 11.85256989 -0.93297638 10.79107727 -0.96083069 9.69741821 C-0.98092697 8.71655243 -1.00102325 7.73568665 -1.02172852 6.72509766 C-1.04171402 5.85905914 -1.06169952 4.99302063 -1.08229065 4.10073853 C-1 2 -1 2 0 0 Z " fill="#0F3E3E" transform="translate(315,199)"/>
<path d="M0 0 C0.78246094 0.21785156 1.56492187 0.43570313 2.37109375 0.66015625 C5.6714341 1.73151322 5.6714341 1.73151322 8.80859375 0.72265625 C16.18420351 0.25436357 16.18420351 0.25436357 18.80859375 2.22265625 C19.13859375 2.71765625 19.46859375 3.21265625 19.80859375 3.72265625 C18.81859375 4.21765625 18.81859375 4.21765625 17.80859375 4.72265625 C18.13859375 5.05265625 18.46859375 5.38265625 18.80859375 5.72265625 C18.84952312 8.05563058 18.85101098 10.3897085 18.80859375 12.72265625 C18.47859375 12.72265625 18.14859375 12.72265625 17.80859375 12.72265625 C17.14859375 10.41265625 16.48859375 8.10265625 15.80859375 5.72265625 C12.9344625 5.38867838 12.9344625 5.38867838 9.80859375 5.72265625 C8.10327052 7.66275147 8.10327052 7.66275147 6.80859375 9.72265625 C5.81859375 9.72265625 4.82859375 9.72265625 3.80859375 9.72265625 C3.60234375 9.08328125 3.39609375 8.44390625 3.18359375 7.78515625 C1.91321166 5.37340548 1.91321166 5.37340548 -1.31640625 4.97265625 C-2.26515625 4.89015625 -3.21390625 4.80765625 -4.19140625 4.72265625 C-4.19140625 4.39265625 -4.19140625 4.06265625 -4.19140625 3.72265625 C-2.54140625 3.39265625 -0.89140625 3.06265625 0.80859375 2.72265625 C-2.16140625 2.22765625 -2.16140625 2.22765625 -5.19140625 1.72265625 C-2.19140625 -0.27734375 -2.19140625 -0.27734375 0 0 Z " fill="#5E6F73" transform="translate(376.19140625,222.27734375)"/>
<path d="M0 0 C-0.25 2.875 -0.25 2.875 -1 6 C-4.27930007 8.35119627 -7.31577275 8.21052668 -11.25 8.125 C-12.32765625 8.10695313 -13.4053125 8.08890625 -14.515625 8.0703125 C-15.33546875 8.04710937 -16.1553125 8.02390625 -17 8 C-18.125 4.25 -18.125 4.25 -17 2 C-14.63671875 1.40234375 -14.63671875 1.40234375 -11.6875 0.9375 C-7.69640934 0.30609742 -7.69640934 0.30609742 -3.76953125 -0.62109375 C-2 -1 -2 -1 0 0 Z " fill="#12252E" transform="translate(167,300)"/>
<path d="M0 0 C5.28 0 10.56 0 16 0 C15.67 0.99 15.34 1.98 15 3 C12.36 3 9.72 3 7 3 C7.50401047 7.9141021 9.11936879 11.61911214 11.35546875 15.94921875 C11.56816406 16.62597656 11.78085938 17.30273438 12 18 C11.34 18.99 10.68 19.98 10 21 C9.46890625 19.95199219 8.9378125 18.90398437 8.390625 17.82421875 C7.67758653 16.44505223 6.96401687 15.06616024 6.25 13.6875 C5.72792969 12.65206055 5.72792969 12.65206055 5.1953125 11.59570312 C3.25836953 7.88322911 1.72398165 5.18909732 -2 3 C-1.01 3 -0.02 3 1 3 C0.67 2.01 0.34 1.02 0 0 Z " fill="#185B59" transform="translate(185,194)"/>
<path d="M0 0 C7.30151433 4.42076798 7.30151433 4.42076798 10.5625 7.125 C15.04833596 10.57564304 19.33904087 12.3329976 25 12 C25.33 12.33 25.66 12.66 26 13 C28.18639453 13.07258946 30.37500389 13.08373783 32.5625 13.0625 C33.76003906 13.05347656 34.95757812 13.04445313 36.19140625 13.03515625 C37.58166016 13.01775391 37.58166016 13.01775391 39 13 C38.67 13.99 38.34 14.98 38 16 C23.08801547 16.37698837 12.90255201 14.55624202 1.46875 4.68359375 C0 3 0 3 0 0 Z " fill="#163A40" transform="translate(351,265)"/>
<path d="M0 0 C1.98 0 3.96 0 6 0 C7.10228696 4.40914783 7.07654536 8.48382401 7 13 C4.66705225 13.04241723 2.33297433 13.04092937 0 13 C-1 12 -1 12 -1.1328125 9.78515625 C-1.13023437 8.88667969 -1.12765625 7.98820312 -1.125 7.0625 C-1.12757813 6.16660156 -1.13015625 5.27070313 -1.1328125 4.34765625 C-1 2 -1 2 0 0 Z " fill="#485A65" transform="translate(265,291)"/>
<path d="M0 0 C1.85546875 0.2265625 1.85546875 0.2265625 4 1 C5.30078125 2.9609375 5.30078125 2.9609375 6.3125 5.375 C6.65925781 6.16648437 7.00601563 6.95796875 7.36328125 7.7734375 C8 10 8 10 7 13 C5.6078125 12.7215625 5.6078125 12.7215625 4.1875 12.4375 C0.98656229 11.75876119 0.98656229 11.75876119 -2 13 C-2.66 12.67 -3.32 12.34 -4 12 C-2 3.42857143 -2 3.42857143 0 0 Z " fill="#2B434B" transform="translate(236,291)"/>
<path d="M0 0 C1.32 0 2.64 0 4 0 C4.67595315 1.41225926 5.34040059 2.83002905 6 4.25 C6.37125 5.03890625 6.7425 5.8278125 7.125 6.640625 C8 9 8 9 8 13 C6.046875 12.73958333 4.09375 12.47916667 2.140625 12.21875 C-0.30458395 11.93222643 -0.30458395 11.93222643 -4 12 C-3.52309796 10.37433394 -3.04340334 8.74948689 -2.5625 7.125 C-2.29566406 6.22007812 -2.02882812 5.31515625 -1.75390625 4.3828125 C-1 2 -1 2 0 0 Z " fill="#334B50" transform="translate(205,291)"/>
<path d="M0 0 C1.41891872 0.0961203 2.83720294 0.21198495 4.25 0.375 C3.92 1.035 3.59 1.695 3.25 2.375 C1.6 2.375 -0.05 2.375 -1.75 2.375 C-3.42479795 7.39939385 -2.98615622 12.27585558 -1.75 17.375 C-1.09 17.375 -0.43 17.375 0.25 17.375 C0.25 18.035 0.25 18.695 0.25 19.375 C-0.74 19.705 -1.73 20.035 -2.75 20.375 C-6.42048137 15.76336956 -8.8615297 12.50913374 -8.75 6.375 C-6.77998647 1.44996617 -5.18341273 0.00817573 0 0 Z " fill="#46545A" transform="translate(373.75,223.625)"/>
<path d="M0 0 C1.30130859 -0.01836914 1.30130859 -0.01836914 2.62890625 -0.03710938 C3.46292969 -0.03904297 4.29695313 -0.04097656 5.15625 -0.04296875 C5.91744141 -0.04707764 6.67863281 -0.05118652 7.46289062 -0.05541992 C9.5 0.1875 9.5 0.1875 12.5 2.1875 C11.51257813 2.22488281 10.52515625 2.26226562 9.5078125 2.30078125 C7.58582031 2.39939453 7.58582031 2.39939453 5.625 2.5 C4.34882813 2.55800781 3.07265625 2.61601562 1.7578125 2.67578125 C0.68273437 2.84464844 -0.39234375 3.01351562 -1.5 3.1875 C-2.49 4.6725 -2.49 4.6725 -3.5 6.1875 C-5.80144109 7.25886051 -8.1340213 8.26739717 -10.5 9.1875 C-10.5 8.5275 -10.5 7.8675 -10.5 7.1875 C-12.48 6.5275 -14.46 5.8675 -16.5 5.1875 C-11.35999474 -0.30698838 -7.12054604 0.00529015 0 0 Z " fill="#687279" transform="translate(172.5,191.8125)"/>
<path d="M0 0 C4.29 0 8.58 0 13 0 C13.66 1.32 14.32 2.64 15 4 C14.01 4.33 13.02 4.66 12 5 C11.67 4.34 11.34 3.68 11 3 C8.03 3.66 5.06 4.32 2 5 C1.67 3.68 1.34 2.36 1 1 C1 16.51 1 32.02 1 48 C0.67 48 0.34 48 0 48 C0 32.16 0 16.32 0 0 Z " fill="#405B5A" transform="translate(260,194)"/>
<path d="M0 0 C1.98 0 3.96 0 6 0 C6 4.29 6 8.58 6 13 C3.69 13 1.38 13 -1 13 C-1.02686553 11.02090602 -1.04633375 9.04171029 -1.0625 7.0625 C-1.07410156 5.96035156 -1.08570313 4.85820312 -1.09765625 3.72265625 C-1 1 -1 1 0 0 Z " fill="#5C6F72" transform="translate(293,291)"/>
<path d="M0 0 C0.33 0.66 0.66 1.32 1 2 C2.485 2.2475 2.485 2.2475 4 2.5 C5.485 2.7475 5.485 2.7475 7 3 C7.33 3.66 7.66 4.32 8 5 C9.32 5 10.64 5 12 5 C12 6.32 12 7.64 12 9 C12.66 9.66 13.32 10.32 14 11 C9.05 11 4.1 11 -1 11 C-1.33 8.69 -1.66 6.38 -2 4 C-1.34 4 -0.68 4 0 4 C0 2.68 0 1.36 0 0 Z " fill="#0A3A3F" transform="translate(83,269)"/>
<path d="M0 0 C2 2 2 2 2.20254517 4.13870239 C2.18033905 5.0225058 2.15813293 5.9063092 2.13525391 6.81689453 C2.11508209 7.81778107 2.09491028 8.8186676 2.0741272 9.84988403 C2.02583267 11.47493362 2.02583267 11.47493362 1.9765625 13.1328125 C1.95153656 14.23978485 1.92651062 15.3467572 1.90072632 16.48727417 C1.81835514 20.03348643 1.72183122 23.57915591 1.625 27.125 C1.56677799 29.52471719 1.50947436 31.92445685 1.453125 34.32421875 C1.31275091 40.21644826 1.16074623 46.108293 1 52 C0.67 52 0.34 52 0 52 C-0.33 39.46 -0.66 26.92 -1 14 C-1.33 14 -1.66 14 -2 14 C-2.19491452 12.54263913 -2.38069358 11.08405407 -2.5625 9.625 C-2.66691406 8.81289062 -2.77132813 8.00078125 -2.87890625 7.1640625 C-3 5 -3 5 -2 3 C-4.64 3.33 -7.28 3.66 -10 4 C-9.67 3.34 -9.34 2.68 -9 2 C-6.36 2 -3.72 2 -1 2 C-0.67 1.34 -0.34 0.68 0 0 Z " fill="#2E5B58" transform="translate(329,194)"/>
<path d="M0 0 C0.33 0 0.66 0 1 0 C1.16139646 13.36004057 0.66509667 26.65738241 0 40 C-0.99 40.495 -0.99 40.495 -2 41 C-4.18516969 37.72224546 -4.21770456 37.34913438 -3.75 33.6875 C-3.64171875 32.79933594 -3.5334375 31.91117188 -3.421875 30.99609375 C-2.96407777 27.74488561 -2.48221901 24.49767195 -2 21.25 C-0.95836185 14.17618869 -0.41217241 7.13709072 0 0 Z " fill="#16141A" transform="translate(183,205)"/>
<path d="M0 0 C1.65 0 3.3 0 5 0 C3.68 0.33 2.36 0.66 1 1 C1 4.3 1 7.6 1 11 C1.66 11 2.32 11 3 11 C3 9.02 3 7.04 3 5 C5 7 5 7 5 11 C5.99 11 6.98 11 8 11 C8 9.35 8 7.7 8 6 C8.66 5.67 9.32 5.34 10 5 C11.13350534 2.98330173 11.13350534 2.98330173 12 1 C13.17661508 4.67692213 13.14475933 8.1638778 13 12 C12 13 12 13 9.53125 13.1328125 C8.03078125 13.12894531 8.03078125 13.12894531 6.5 13.125 C5.4996875 13.12757813 4.499375 13.13015625 3.46875 13.1328125 C1 13 1 13 0 12 C-0.07244053 9.98035801 -0.08377188 7.95832876 -0.0625 5.9375 C-0.05347656 4.83277344 -0.04445313 3.72804688 -0.03515625 2.58984375 C-0.02355469 1.73519531 -0.01195312 0.88054687 0 0 Z " fill="#4D6A6F" transform="translate(276,291)"/>
<path d="M0 0 C4.95 0 9.9 0 15 0 C15 3.63 15 7.26 15 11 C14.67 9.68 14.34 8.36 14 7 C13.34 6.67 12.68 6.34 12 6 C11.67 5.01 11.34 4.02 11 3 C8.02934491 3.34227572 8.02934491 3.34227572 5 4 C4.67 4.66 4.34 5.32 4 6 C3.01 5.67 2.02 5.34 1 5 C0.67 6.98 0.34 8.96 0 11 C-0.33 11 -0.66 11 -1 11 C-1.0270043 9.54176788 -1.04639787 8.08339325 -1.0625 6.625 C-1.07410156 5.81289062 -1.08570313 5.00078125 -1.09765625 4.1640625 C-1 2 -1 2 0 0 Z " fill="#2E6A63" transform="translate(339,194)"/>
<path d="M0 0 C0.33 0.66 0.66 1.32 1 2 C1.99 1.67 2.98 1.34 4 1 C5.57300962 6.73303505 6.24327778 11.15659442 5 17 C3.0625 16.6875 3.0625 16.6875 1 16 C-0.14077657 12.57767028 -0.09815117 9.91326783 -0.0625 6.3125 C-0.05347656 5.13300781 -0.04445312 3.95351563 -0.03515625 2.73828125 C-0.02355469 1.83464844 -0.01195312 0.93101562 0 0 Z " fill="#081420" transform="translate(135,281)"/>
<path d="M0 0 C3.2578125 -0.29296875 3.2578125 -0.29296875 7.125 -0.1875 C9.04699219 -0.14689453 9.04699219 -0.14689453 11.0078125 -0.10546875 C11.99523437 -0.07066406 12.98265625 -0.03585938 14 0 C14.33 0.99 14.66 1.98 15 3 C12.69 2.67 10.38 2.34 8 2 C8.33 3.32 8.66 4.64 9 6 C5.7 6 2.4 6 -1 6 C-1.33 5.01 -1.66 4.02 -2 3 C-1.34 2.01 -0.68 1.02 0 0 Z " fill="#1B1F28" transform="translate(171,194)"/>
<path d="M0 0 C2.64 0 5.28 0 8 0 C8 1.32 8 2.64 8 4 C7.34 4 6.68 4 6 4 C6 6.64 6 9.28 6 12 C4.68 12.33 3.36 12.66 2 13 C2 10.03 2 7.06 2 4 C1.34 4 0.68 4 0 4 C0 2.68 0 1.36 0 0 Z " fill="#334A4D" transform="translate(317,291)"/>
<path d="M0 0 C0.33 0 0.66 0 1 0 C1.20496094 1.09699219 1.40992188 2.19398438 1.62109375 3.32421875 C1.89321293 4.77864887 2.16534925 6.23307578 2.4375 7.6875 C2.57220703 8.40873047 2.70691406 9.12996094 2.84570312 9.87304688 C3.10911736 11.2800644 3.37523796 12.6865784 3.64428711 14.0925293 C3.94460907 15.70297232 4.2106002 17.31976124 4.46875 18.9375 C4.80215751 21.20399668 4.80215751 21.20399668 7.0625 22.3125 C7.701875 22.539375 8.34125 22.76625 9 23 C7.35 22.67 5.7 22.34 4 22 C4 23.65 4 25.3 4 27 C1.00675737 25.9024777 0.15389099 25.32317108 -1.25 22.375 C-1.62125 21.199375 -1.62125 21.199375 -2 20 C-1.34 19.62875 -0.68 19.2575 0 18.875 C2.35303045 17.09105222 2.35303045 17.09105222 2.25 13.8125 C2.1675 12.884375 2.085 11.95625 2 11 C1.34 11 0.68 11 0 11 C0 7.37 0 3.74 0 0 Z " fill="#3E4C52" transform="translate(165,223)"/>
<path d="M0 0 C0.33 0 0.66 0 1 0 C1.33 9.57 1.66 19.14 2 29 C1.34 29.33 0.68 29.66 0 30 C-0.33 38.58 -0.66 47.16 -1 56 C-1.33 56 -1.66 56 -2 56 C-2.0291189 51.45834687 -2.0468389 46.9167179 -2.0625 42.375 C-2.07087891 41.08980469 -2.07925781 39.80460937 -2.08789062 38.48046875 C-2.09111328 37.23652344 -2.09433594 35.99257812 -2.09765625 34.7109375 C-2.10289307 33.56931152 -2.10812988 32.42768555 -2.11352539 31.25146484 C-2.00257778 28.07382984 -1.55047983 25.12706033 -1 22 C-0.86335229 20.20261959 -0.75775427 18.40260363 -0.68359375 16.6015625 C-0.64169922 15.62832031 -0.59980469 14.65507812 -0.55664062 13.65234375 C-0.51732422 12.65332031 -0.47800781 11.65429688 -0.4375 10.625 C-0.39431641 9.60277344 -0.35113281 8.58054688 -0.30664062 7.52734375 C-0.20112208 5.01834712 -0.09900787 2.50926057 0 0 Z " fill="#1C4C4C" transform="translate(262,214)"/>
<path d="M0 0 C1.98 0.66 3.96 1.32 6 2 C5.690625 2.9075 5.38125 3.815 5.0625 4.75 C3.73120388 9.27454487 3.57649514 13.83362302 3.34375 18.5234375 C3.2303125 19.34070313 3.116875 20.15796875 3 21 C2.34 21.33 1.68 21.66 1 22 C0.93941406 20.87980469 0.87882813 19.75960938 0.81640625 18.60546875 C0.73198576 17.13280016 0.64733851 15.66014456 0.5625 14.1875 C0.52318359 13.44951172 0.48386719 12.71152344 0.44335938 11.95117188 C0.25618965 8.76928658 0.01279207 6.03837622 -1 3 C-0.67 2.01 -0.34 1.02 0 0 Z " fill="#18222D" transform="translate(169,245)"/>
<path d="M0 0 C1.11375 0.2475 1.11375 0.2475 2.25 0.5 C5.18606431 1.03382988 7.13588733 0.73648612 10 0 C9.01 0.33 8.02 0.66 7 1 C7.33 2.65 7.66 4.3 8 6 C6.0625 5.625 6.0625 5.625 4 5 C3.67 4.34 3.34 3.68 3 3 C2.01 2.67 1.02 2.34 0 2 C0 4.97 0 7.94 0 11 C0.66 11 1.32 11 2 11 C2 9.02 2 7.04 2 5 C4 8.75 4 8.75 4 11 C4.99 11 5.98 11 7 11 C7.33 9.68 7.66 8.36 8 7 C8 8.65 8 10.3 8 12 C4.5657338 12.85856655 2.38317487 12.97591583 -1 12 C-1.02687279 10.18757948 -1.04633715 8.37504767 -1.0625 6.5625 C-1.07410156 5.55316406 -1.08570313 4.54382813 -1.09765625 3.50390625 C-1 1 -1 1 0 0 Z " fill="#43595F" transform="translate(186,291)"/>
<path d="M0 0 C-0.37047118 2.74148672 -0.68587944 4.58593199 -2.375 6.8125 C-4 8 -4 8 -7 8 C-7 7.34 -7 6.68 -7 6 C-8.32 5.67 -9.64 5.34 -11 5 C-8.45499142 -0.63537615 -5.97208347 -0.11059414 0 0 Z " fill="#3C4C52" transform="translate(386,233)"/>
<path d="M0 0 C4.62 0 9.24 0 14 0 C13.67 0.99 13.34 1.98 13 3 C10.36 3 7.72 3 5 3 C4.34 6.96 3.68 10.92 3 15 C2.67 15 2.34 15 2 15 C1.66048381 13.43883181 1.32867456 11.87598662 1 10.3125 C0.814375 9.44238281 0.62875 8.57226562 0.4375 7.67578125 C0 5 0 5 0 0 Z " fill="#195C54" transform="translate(315,194)"/>
<path d="M0 0 C0.99 0 1.98 0 3 0 C3 3.96 3 7.92 3 12 C1.68 12 0.36 12 -1 12 C-1.66 10.35 -2.32 8.7 -3 7 C-3.66 7 -4.32 7 -5 7 C-5 5.35 -5 3.7 -5 2 C-4.67 2.66 -4.34 3.32 -4 4 C-3.01 4.33 -2.02 4.66 -1 5 C-0.67 3.35 -0.34 1.7 0 0 Z " fill="#2A414B" transform="translate(310,292)"/>
<path d="M0 0 C4.95 0 9.9 0 15 0 C14.67 0.99 14.34 1.98 14 3 C11.69 3 9.38 3 7 3 C6.34 4.32 5.68 5.64 5 7 C4.01 7 3.02 7 2 7 C1.67 6.01 1.34 5.02 1 4 C0.01 4.495 0.01 4.495 -1 5 C-0.67 3.35 -0.34 1.7 0 0 Z " fill="#114541" transform="translate(82,194)"/>
<path d="M0 0 C0.33 0 0.66 0 1 0 C1.02690104 2.79173055 1.04679053 5.58320348 1.0625 8.375 C1.07087891 9.1690625 1.07925781 9.963125 1.08789062 10.78125 C1.11328125 16.7734375 1.11328125 16.7734375 0 19 C-3.3 18.67 -6.6 18.34 -10 18 C-10 17.67 -10 17.34 -10 17 C-7.69 16.34 -5.38 15.68 -3 15 C-2.85691406 14.28457031 -2.71382812 13.56914062 -2.56640625 12.83203125 C-1.7109375 8.5546875 -0.85546875 4.27734375 0 0 Z " fill="#70A399" transform="translate(229,261)"/>
<path d="M0 0 C0.66 0 1.32 0 2 0 C2 0.99 2 1.98 2 3 C2.66 3 3.32 3 4 3 C4.19672365 4.72814161 4.38196799 6.45759197 4.5625 8.1875 C4.71912109 9.63189453 4.71912109 9.63189453 4.87890625 11.10546875 C4.99758751 13.94233377 4.67765639 16.25423671 4 19 C3.34 19 2.68 19 2 19 C2 20.32 2 21.64 2 23 C1.34 23 0.68 23 0 23 C0.165 22.2575 0.33 21.515 0.5 20.75 C1.42133259 13.84000555 1.57594056 6.81656828 0 0 Z " fill="#305A57" transform="translate(421,226)"/>
<path d="M0 0 C2.67927341 4.01891012 2.15601248 6.24161923 2 11 C-4.625 12.125 -4.625 12.125 -8 11 C-7.34 11 -6.68 11 -6 11 C-6 8.69 -6 6.38 -6 4 C-5.01 5.485 -5.01 5.485 -4 7 C-3.01 7 -2.02 7 -1 7 C-0.67 4.69 -0.34 2.38 0 0 Z " fill="#3D5358" transform="translate(226,292)"/>
<path d="M0 0 C0.66 0.33 1.32 0.66 2 1 C-0.75 7.75 -0.75 7.75 -3 10 C-3.39764263 11.98821313 -3.73775349 13.98944339 -4 16 C-4.99 16.33 -5.98 16.66 -7 17 C-8.06528748 14.26980214 -8.07998186 13.20701188 -7.00390625 10.421875 C-6.29041016 9.09929687 -6.29041016 9.09929687 -5.5625 7.75 C-5.08941406 6.85796875 -4.61632812 5.9659375 -4.12890625 5.046875 C-3.75636719 4.37140625 -3.38382813 3.6959375 -3 3 C-2.34 3 -1.68 3 -1 3 C-0.67 2.01 -0.34 1.02 0 0 Z " fill="#1B6060" transform="translate(248,206)"/>
<path d="M0 0 C4.49092377 2.37754788 7.52235713 5.3606063 11 9 C10.67 9.66 10.34 10.32 10 11 C9.67 11 9.34 11 9 11 C8.67 11.99 8.34 12.98 8 14 C7.67 12.02 7.34 10.04 7 8 C6.236875 7.896875 5.47375 7.79375 4.6875 7.6875 C1.80299352 6.94960299 0.64504011 6.46756016 -1 4 C-0.6875 1.8125 -0.6875 1.8125 0 0 Z " fill="#2A5657" transform="translate(405,200)"/>
<path d="M0 0 C0.99 0.33 1.98 0.66 3 1 C3.34342449 2.33076989 3.67619874 3.66431979 4 5 C4.99 5.66 5.98 6.32 7 7 C7 8.32 7 9.64 7 11 C7.66 11 8.32 11 9 11 C9 11.66 9 12.32 9 13 C8.01 13.33 7.02 13.66 6 14 C2.15870308 9.17375515 0.37742233 6.16456476 0 0 Z " fill="#203138" transform="translate(365,230)"/>
<path d="M0 0 C1.14143894 3.42431683 0.8841774 3.78309661 -0.4375 6.9375 C-2.49365645 12.60127639 -2.27194795 18.04736164 -2 24 C-2.99 23.67 -3.98 23.34 -5 23 C-5 20.03 -5 17.06 -5 14 C-5.33 14 -5.66 14 -6 14 C-6.20086443 10.28400809 -6.1519437 9.22791555 -4 6 C-3.34 6 -2.68 6 -2 6 C-2 4.68 -2 3.36 -2 2 C-1.34 2 -0.68 2 0 2 C0 1.34 0 0.68 0 0 Z " fill="#2F6261" transform="translate(358,222)"/>
<path d="M0 0 C1.97909398 -0.02686553 3.95828971 -0.04633375 5.9375 -0.0625 C7.03964844 -0.07410156 8.14179688 -0.08570313 9.27734375 -0.09765625 C12 0 12 0 13 1 C14.99958364 1.04080783 17.00045254 1.04254356 19 1 C19 2.32 19 3.64 19 5 C17.8553125 4.4740625 17.8553125 4.4740625 16.6875 3.9375 C13.95240621 2.67639116 13.95240621 2.67639116 11 4 C8.625 3.625 8.625 3.625 6 3 C4.63875 2.7834375 4.63875 2.7834375 3.25 2.5625 C2.5075 2.376875 1.765 2.19125 1 2 C0.67 1.34 0.34 0.68 0 0 Z " fill="#0A383B" transform="translate(377,195)"/>
<path d="M0 0 C1.17369141 0.29970703 1.17369141 0.29970703 2.37109375 0.60546875 C3.15613281 0.79753906 3.94117188 0.98960937 4.75 1.1875 C6.80859375 1.79296875 6.80859375 1.79296875 8.80859375 2.79296875 C7.15859375 3.12296875 5.50859375 3.45296875 3.80859375 3.79296875 C3.80859375 4.12296875 3.80859375 4.45296875 3.80859375 4.79296875 C5.45859375 5.12296875 7.10859375 5.45296875 8.80859375 5.79296875 C8.14859375 7.11296875 7.48859375 8.43296875 6.80859375 9.79296875 C5.81859375 9.79296875 4.82859375 9.79296875 3.80859375 9.79296875 C3.60234375 9.15359375 3.39609375 8.51421875 3.18359375 7.85546875 C1.91321166 5.44371798 1.91321166 5.44371798 -1.31640625 5.04296875 C-2.26515625 4.96046875 -3.21390625 4.87796875 -4.19140625 4.79296875 C-4.19140625 4.46296875 -4.19140625 4.13296875 -4.19140625 3.79296875 C-2.54140625 3.46296875 -0.89140625 3.13296875 0.80859375 2.79296875 C-2.16140625 2.29796875 -2.16140625 2.29796875 -5.19140625 1.79296875 C-2.19140625 -0.20703125 -2.19140625 -0.20703125 0 0 Z " fill="#606E74" transform="translate(376.19140625,222.20703125)"/>
<path d="M0 0 C2.31 0 4.62 0 7 0 C7.33 1.32 7.66 2.64 8 4 C6.02 4.33 4.04 4.66 2 5 C1.67 6.32 1.34 7.64 1 9 C0.01 8.34 -0.98 7.68 -2 7 C-2.1875 4.375 -2.1875 4.375 -2 2 C-1.34 2 -0.68 2 0 2 C0 1.34 0 0.68 0 0 Z " fill="#1E373D" transform="translate(250,291)"/>
<path d="M0 0 C1.8125 0.5 1.8125 0.5 4 2 C7.81059861 9.076826 7.2987474 16.12192047 7 24 C6.34 24 5.68 24 5 24 C5.061875 22.72125 5.12375 21.4425 5.1875 20.125 C5.19870493 13.02107458 2.80186763 6.46584837 0 0 Z " fill="#1F4448" transform="translate(404,219)"/>
<path d="M0 0 C1.65 1.65 3.3 3.3 5 5 C4.67 5.99 4.34 6.98 4 8 C4.33 8.66 4.66 9.32 5 10 C3.02 10 1.04 10 -1 10 C-0.67 8.68 -0.34 7.36 0 6 C-0.99 6 -1.98 6 -3 6 C-3 4.68 -3 3.36 -3 2 C-2.01 2 -1.02 2 0 2 C0 1.34 0 0.68 0 0 Z " fill="#135E60" transform="translate(275,198)"/>
<path d="M0 0 C5.94 0 11.88 0 18 0 C15.75 6.75 15.75 6.75 13 10 C12.875 4.25 12.875 4.25 14 2 C9.38 2 4.76 2 0 2 C0 1.34 0 0.68 0 0 Z " fill="#45766E" transform="translate(240,194)"/>
<path d="M0 0 C5.28 0 10.56 0 16 0 C16 0.33 16 0.66 16 1 C12.7 1 9.4 1 6 1 C5.67 3.64 5.34 6.28 5 9 C4.401875 8.38125 3.80375 7.7625 3.1875 7.125 C0.99188856 4.86323046 0.99188856 4.86323046 -2 3 C-1.01 3 -0.02 3 1 3 C0.67 2.01 0.34 1.02 0 0 Z " fill="#3B5E5F" transform="translate(185,194)"/>
<path d="M0 0 C1.65 0 3.3 0 5 0 C5 1.98 5 3.96 5 6 C4.01 6 3.02 6 2 6 C1.67 7.32 1.34 8.64 1 10 C2.32 9.67 3.64 9.34 5 9 C5 9.66 5 10.32 5 11 C3.35 11 1.7 11 0 11 C0 7.37 0 3.74 0 0 Z " fill="#122730" transform="translate(293,292)"/>
<path d="M0 0 C3.81582248 5.72373372 2.89143178 10.78916727 2.0625 17.3125 C1.91264648 18.56643555 1.91264648 18.56643555 1.75976562 19.84570312 C1.51349177 21.89798523 1.25769102 23.94912019 1 26 C0.67 26 0.34 26 0 26 C-0.19670554 22.22958744 -0.38078426 18.45866237 -0.5625 14.6875 C-0.61857422 13.61564453 -0.67464844 12.54378906 -0.73242188 11.43945312 C-0.80493164 9.89741211 -0.80493164 9.89741211 -0.87890625 8.32421875 C-0.9260376 7.37635498 -0.97316895 6.42849121 -1.02172852 5.4519043 C-1 3 -1 3 0 0 Z " fill="#184744" transform="translate(339,202)"/>
<path d="M0 0 C1.32 0.33 2.64 0.66 4 1 C3.05275873 3.36810318 2.34708866 4.75207953 0.25 6.25 C-2.57753638 7.19251213 -5.03993304 7.1345485 -8 7 C-7.67 6.01 -7.34 5.02 -7 4 C-5.01276732 3.29618843 -3.01222047 2.6288189 -1 2 C-0.67 1.34 -0.34 0.68 0 0 Z " fill="#144144" transform="translate(401,271)"/>
<path d="M0 0 C3.96 0 7.92 0 12 0 C12.66 1.32 13.32 2.64 14 4 C13.01 4.33 12.02 4.66 11 5 C10.67 4.34 10.34 3.68 10 3 C7.03 3.66 4.06 4.32 1 5 C0.67 3.35 0.34 1.7 0 0 Z " fill="#215A57" transform="translate(261,194)"/>
<path d="M0 0 C1.32 0.33 2.64 0.66 4 1 C4 2.98 4 4.96 4 7 C7.63 7.33 11.26 7.66 15 8 C15 8.33 15 8.66 15 9 C12.68756208 9.02685412 10.3750373 9.04632841 8.0625 9.0625 C6.77472656 9.07410156 5.48695313 9.08570313 4.16015625 9.09765625 C1 9 1 9 0 8 C-0.14115161 5.32941149 -0.04247107 2.67567762 0 0 Z " fill="#11373A" transform="translate(260,271)"/>
<path d="M0 0 C0.99 0.33 1.98 0.66 3 1 C3 1.66 3 2.32 3 3 C3.66 3 4.32 3 5 3 C5 3.66 5 4.32 5 5 C5.66 5 6.32 5 7 5 C7.66 6.98 8.32 8.96 9 11 C6 11 6 11 4.39453125 9.46875 C3.61142578 8.49421875 3.61142578 8.49421875 2.8125 7.5 C2.28269531 6.8503125 1.75289063 6.200625 1.20703125 5.53125 C0.80871094 5.0259375 0.41039062 4.520625 0 4 C0.66 4 1.32 4 2 4 C2 3.34 2 2.68 2 2 C1.34 2 0.68 2 0 2 C0 1.34 0 0.68 0 0 Z " fill="#344850" transform="translate(372,239)"/>
<path d="M0 0 C0.33 1.32 0.66 2.64 1 4 C1.66 4 2.32 4 3 4 C3.33 6.64 3.66 9.28 4 12 C3.34 12 2.68 12 2 12 C1.34 12.66 0.68 13.32 0 14 C-1 13 -1 13 -1.1328125 11.07421875 C-1.13023437 10.28660156 -1.12765625 9.49898437 -1.125 8.6875 C-1.12757813 7.90761719 -1.13015625 7.12773437 -1.1328125 6.32421875 C-1.00499912 4.08748461 -0.61913869 2.14733021 0 0 Z " fill="#0A111F" transform="translate(164,230)"/>
<path d="M0 0 C1.32 0 2.64 0 4 0 C4 3.63 4 7.26 4 11 C3.01 11.33 2.02 11.66 1 12 C0.67 8.04 0.34 4.08 0 0 Z " fill="#274044" transform="translate(193,292)"/>
<path d="M0 0 C2.54910223 0.77914255 4.62292077 1.75978475 7 3 C7 3.33 7 3.66 7 4 C6.113125 3.855625 5.22625 3.71125 4.3125 3.5625 C-1.42593581 2.73256094 -7.21954276 2.40854359 -13 2 C-8.73921052 -0.84052632 -5.00344496 -0.5215071 0 0 Z " fill="#143C3D" transform="translate(388,207)"/>
<path d="M0 0 C0.99 0 1.98 0 3 0 C3 1.32 3 2.64 3 4 C3.99 4 4.98 4 6 4 C6 4.66 6 5.32 6 6 C2.91190305 7.76462683 1.76687864 8 -2 8 C-1.34 5.36 -0.68 2.72 0 0 Z " fill="#263F44" transform="translate(203,295)"/>
<path d="M0 0 C0.66 0.33 1.32 0.66 2 1 C0.32482761 4.53647504 -0.49280817 5.7911563 -4.1875 7.3125 C-5.5796875 7.6528125 -5.5796875 7.6528125 -7 8 C-7.33 7.34 -7.66 6.68 -8 6 C-10.02463255 5.34786708 -10.02463255 5.34786708 -12 5 C-11.07767578 4.70996094 -11.07767578 4.70996094 -10.13671875 4.4140625 C-9.32847656 4.15367187 -8.52023437 3.89328125 -7.6875 3.625 C-6.88699219 3.36976563 -6.08648437 3.11453125 -5.26171875 2.8515625 C-2.77275472 2.01168189 -2.77275472 2.01168189 0 0 Z " fill="#315A5C" transform="translate(397,260)"/>
<path d="M0 0 C2.31 0.33 4.62 0.66 7 1 C6.67 1.66 6.34 2.32 6 3 C7.65 3.33 9.3 3.66 11 4 C11 4.33 11 4.66 11 5 C7.37 5 3.74 5 0 5 C-0.33 4.01 -0.66 3.02 -1 2 C-0.67 1.34 -0.34 0.68 0 0 Z " fill="#051622" transform="translate(150,302)"/>
<path d="M0 0 C0.33 0 0.66 0 1 0 C1.12117187 0.81984375 1.24234375 1.6396875 1.3671875 2.484375 C1.53476563 3.56203125 1.70234375 4.6396875 1.875 5.75 C2.03742188 6.81734375 2.19984375 7.8846875 2.3671875 8.984375 C2.93223882 11.67708871 3.63422914 13.63572439 5 16 C4.38125 16.28875 3.7625 16.5775 3.125 16.875 C0.86674235 17.93720042 0.86674235 17.93720042 -1 20 C-1.33 19.01 -1.66 18.02 -2 17 C-1.34 17 -0.68 17 0 17 C0 11.39 0 5.78 0 0 Z " fill="#3D4B52" transform="translate(140,281)"/>
<path d="M0 0 C0.72445313 0.20496094 1.44890625 0.40992188 2.1953125 0.62109375 C7.10960129 1.99054223 11.93341513 3.31532637 17 4 C17 4.33 17 4.66 17 5 C7.0982659 6.43930636 7.0982659 6.43930636 2.875 4.75 C1 3 1 3 0 0 Z " fill="#365D5E" transform="translate(368,262)"/>
<path d="M0 0 C0.99 0.33 1.98 0.66 3 1 C3 4.3 3 7.6 3 11 C2.01 11.495 2.01 11.495 1 12 C-1.23551759 8.64672361 -1.17283528 8.09256343 -0.625 4.3125 C-0.51414063 3.50425781 -0.40328125 2.69601563 -0.2890625 1.86328125 C-0.19367188 1.24839844 -0.09828125 0.63351563 0 0 Z " fill="#07111B" transform="translate(180,234)"/>
<path d="M0 0 C0.66 0.66 1.32 1.32 2 2 C1.625 5.625 1.625 5.625 1 9 C-0.32 8.67 -1.64 8.34 -3 8 C-3.33 6.02 -3.66 4.04 -4 2 C-3.01 2 -2.02 2 -1 2 C-0.67 1.34 -0.34 0.68 0 0 Z " fill="#142230" transform="translate(139,289)"/>
<path d="M0 0 C0.99 0.33 1.98 0.66 3 1 C3.33 1.99 3.66 2.98 4 4 C4.99 4.66 5.98 5.32 7 6 C8.1875 8.625 8.1875 8.625 9 11 C6 11 6 11 4.39453125 9.609375 C3.87246094 8.99578125 3.35039062 8.3821875 2.8125 7.75 C2.28269531 7.14671875 1.75289063 6.5434375 1.20703125 5.921875 C0 4 0 4 0 0 Z " fill="#123A3C" transform="translate(285,235)"/>
<path d="M0 0 C0.99 0.33 1.98 0.66 3 1 C3 1.99 3 2.98 3 4 C2.34 4 1.68 4 1 4 C0.87625 4.763125 0.7525 5.52625 0.625 6.3125 C0 9 0 9 -2 12 C-2.66 12 -3.32 12 -4 12 C-3.67 9.36 -3.34 6.72 -3 4 C-2.01 3.67 -1.02 3.34 0 3 C0 2.01 0 1.02 0 0 Z " fill="#093A3D" transform="translate(411,240)"/>
<path d="M0 0 C2 2 2 2 2 6 C1.34 6 0.68 6 0 6 C-0.33 8.64 -0.66 11.28 -1 14 C-1.33 14 -1.66 14 -2 14 C-2.19491452 12.54263913 -2.38069358 11.08405407 -2.5625 9.625 C-2.66691406 8.81289062 -2.77132813 8.00078125 -2.87890625 7.1640625 C-3 5 -3 5 -2 3 C-4.64 3.33 -7.28 3.66 -10 4 C-9.67 3.34 -9.34 2.68 -9 2 C-6.36 2 -3.72 2 -1 2 C-0.67 1.34 -0.34 0.68 0 0 Z " fill="#3B7872" transform="translate(329,194)"/>
<path d="M0 0 C1.65 0 3.3 0 5 0 C6 1 6 1 6.0625 4.5625 C6.041875 5.696875 6.02125 6.83125 6 8 C5.34 6.68 4.68 5.36 4 4 C3.34 4 2.68 4 2 4 C1.67 6.64 1.34 9.28 1 12 C0.67 12 0.34 12 0 12 C0 8.04 0 4.08 0 0 Z " fill="#182B33" transform="translate(134,279)"/>
<path d="M0 0 C1.98 0 3.96 0 6 0 C5.29875 0.556875 4.5975 1.11375 3.875 1.6875 C0.88655739 4.09124732 -2.05940238 6.53810432 -5 9 C-4.67 7.35 -4.34 5.7 -4 4 C-3.01 3.67 -2.02 3.34 -1 3 C-0.67 2.01 -0.34 1.02 0 0 Z " fill="#3F6460" transform="translate(365,212)"/>
<path d="M0 0 C2.3125 -0.25 2.3125 -0.25 5 0 C6.8125 2 6.8125 2 8 4 C5.29120665 5.35439668 2.99066732 5.06501451 0 5 C-0.33 4.01 -0.66 3.02 -1 2 C-0.67 1.34 -0.34 0.68 0 0 Z " fill="#050B15" transform="translate(170,195)"/>
<path d="M0 0 C0.33 0 0.66 0 1 0 C1.22531972 3.29073662 1.42735982 6.58249419 1.625 9.875 C1.68945312 10.81214844 1.75390625 11.74929688 1.8203125 12.71484375 C1.871875 13.61074219 1.9234375 14.50664062 1.9765625 15.4296875 C2.02893066 16.25710449 2.08129883 17.08452148 2.13525391 17.93701172 C2 20 2 20 0 22 C-0.90249856 16.85910079 -0.97986395 12.30273626 -0.5625 7.0625 C-0.51029297 6.37865234 -0.45808594 5.69480469 -0.40429688 4.99023438 C-0.27630102 3.32628831 -0.13912281 1.6630527 0 0 Z " fill="#112126" transform="translate(171,268)"/>
<path d="M0 0 C-0.33 0.99 -0.66 1.98 -1 3 C-5.62 3 -10.24 3 -15 3 C-15 2.34 -15 1.68 -15 1 C-12.8750734 0.83240016 -10.75005624 0.66594799 -8.625 0.5 C-7.44164062 0.4071875 -6.25828125 0.314375 -5.0390625 0.21875 C-3.36213157 0.09804546 -1.68126944 0 0 0 Z " fill="#1F4247" transform="translate(390,278)"/>
<path d="M0 0 C0.66 0 1.32 0 2 0 C1.40501518 3.36166422 0.25635842 5.21159678 -2 7.75 C-2.804375 8.67039062 -2.804375 8.67039062 -3.625 9.609375 C-4.07875 10.06828125 -4.5325 10.5271875 -5 11 C-5.33 11 -5.66 11 -6 11 C-6 9.35 -6 7.7 -6 6 C-5.34 5.67 -4.68 5.34 -4 5 C-3.34 5.33 -2.68 5.66 -2 6 C-1.855625 5.38125 -1.71125 4.7625 -1.5625 4.125 C-1 2 -1 2 0 0 Z " fill="#3C6561" transform="translate(418,257)"/>
<path d="M0 0 C0.66 0.33 1.32 0.66 2 1 C1.54979057 6.85272256 -1.03839227 11.08220119 -4 16 C-4.66 15.01 -5.32 14.02 -6 13 C-5.01 12.67 -4.02 12.34 -3 12 C-2.87625 11.13375 -2.7525 10.2675 -2.625 9.375 C-2.01941879 6.10486147 -1.11693965 3.12743101 0 0 Z " fill="#487976" transform="translate(250,202)"/>
<path d="M0 0 C-0.598125 0.12375 -1.19625 0.2475 -1.8125 0.375 C-4.26231348 0.95475985 -4.26231348 0.95475985 -7 3 C-9.33199388 3.07905064 -11.66832622 3.08798769 -14 3 C-12.63379062 0.26758124 -10.66231512 -0.39708091 -7.921875 -1.53515625 C-4.89872774 -2.26636463 -2.74301146 -1.27115165 0 0 Z " fill="#375E5F" transform="translate(374,198)"/>
<path d="M0 0 C2.12038635 2.61514317 4.13091744 5.19637616 6 8 C5.01 9.485 5.01 9.485 4 11 C3.34 10.67 2.68 10.34 2 10 C2 8.68 2 7.36 2 6 C1.34 6 0.68 6 0 6 C-0.38218767 4.34385343 -0.71395102 2.67542976 -1 1 C-0.67 0.67 -0.34 0.34 0 0 Z " fill="#2B5255" transform="translate(358,251)"/>
<path d="M0 0 C0.33 0 0.66 0 1 0 C1.05397335 2.4377963 1.09365616 4.87439685 1.125 7.3125 C1.14175781 8.00279297 1.15851563 8.69308594 1.17578125 9.40429688 C1.21217794 13.17135396 1.14378864 14.78431704 -1 18 C-2.41117949 11.6496923 -1.3792223 6.30338787 0 0 Z " fill="#0B3634" transform="translate(340,220)"/>
<path d="M0 0 C2.61500768 2.36595933 4.38999603 4.86049226 6 8 C5.67 8.66 5.34 9.32 5 10 C3.125 9.875 3.125 9.875 1 9 C-0.64661571 5.3931275 -1.27162597 3.8148779 0 0 Z " fill="#3E7272" transform="translate(211,212)"/>
<path d="M0 0 C2.65269897 2.47585238 4.68010103 4.59026101 6 8 C6 8.99 6 9.98 6 11 C5.34 11 4.68 11 4 11 C2.67578125 9.35546875 2.67578125 9.35546875 1.3125 7.1875 C0.85488281 6.47980469 0.39726562 5.77210938 -0.07421875 5.04296875 C-1 3 -1 3 0 0 Z " fill="#2B5754" transform="translate(416,211)"/>
<path d="M0 0 C1.20577254 4.82309018 0.4840323 5.59880178 -1.9375 9.75 C-2.50339844 10.73484375 -3.06929687 11.7196875 -3.65234375 12.734375 C-4.09707031 13.48203125 -4.54179687 14.2296875 -5 15 C-5.66 14.67 -6.32 14.34 -7 14 C-4.69 9.38 -2.38 4.76 0 0 Z " fill="#265F5F" transform="translate(237,200)"/>
<path d="M0 0 C0.33 0.66 0.66 1.32 1 2 C1.78375 2.28875 2.5675 2.5775 3.375 2.875 C6.31501099 4.13500471 7.31463588 5.33889875 9 8 C5.625 7.6875 5.625 7.6875 2 7 C0 4 0 4 0 0 Z " fill="#41575C" transform="translate(247,296)"/>
<path d="M0 0 C1.98 0.495 1.98 0.495 4 1 C4.33 2.65 4.66 4.3 5 6 C4.34 6 3.68 6 3 6 C3 6.66 3 7.32 3 8 C2.34 8 1.68 8 1 8 C0.40267181 5.23735711 0 2.83967231 0 0 Z " fill="#384F5B" transform="translate(236,291)"/>
<path d="M0 0 C0.721875 0.185625 1.44375 0.37125 2.1875 0.5625 C5.12826973 1.01995307 7.14103058 0.73516357 10 0 C9.01 0.33 8.02 0.66 7 1 C7.33 2.65 7.66 4.3 8 6 C6.0625 5.625 6.0625 5.625 4 5 C3.67 4.34 3.34 3.68 3 3 C2.01 2.67 1.02 2.34 0 2 C-0.33 2.66 -0.66 3.32 -1 4 C-0.67 2.68 -0.34 1.36 0 0 Z " fill="#456872" transform="translate(186,291)"/>
<path d="M0 0 C2.97 0 5.94 0 9 0 C8.01 0.495 8.01 0.495 7 1 C7 3.31 7 5.62 7 8 C5 6.75 5 6.75 3 5 C3 3.68 3 2.36 3 1 C2.01 1.33 1.02 1.66 0 2 C0 1.34 0 0.68 0 0 Z " fill="#556A70" transform="translate(303,291)"/>
<path d="M0 0 C1.9375 0.125 1.9375 0.125 4 1 C4.70211894 2.65204456 5.36971413 4.31923769 6 6 C6.99 6.33 7.98 6.66 9 7 C8.67 7.66 8.34 8.32 8 9 C6.0625 8.25 6.0625 8.25 4 7 C3.25 4.875 3.25 4.875 3 3 C2.34 3 1.68 3 1 3 C0.67 3.66 0.34 4.32 0 5 C-0.5625 3.0625 -0.5625 3.0625 -1 1 C-0.67 0.67 -0.34 0.34 0 0 Z " fill="#114142" transform="translate(274,223)"/>
<path d="M0 0 C2.31 0 4.62 0 7 0 C7 0.99 7 1.98 7 3 C6.34 3 5.68 3 5 3 C4.67 3.66 4.34 4.32 4 5 C2.35 4.01 0.7 3.02 -1 2 C-0.67 1.34 -0.34 0.68 0 0 Z " fill="#116965" transform="translate(245,196)"/>
<path d="M0 0 C0.66 0 1.32 0 2 0 C2 2.64 2 5.28 2 8 C0.35 7.67 -1.3 7.34 -3 7 C-2.67 5.68 -2.34 4.36 -2 3 C-1.34 3 -0.68 3 0 3 C0 2.01 0 1.02 0 0 Z " fill="#0E2936" transform="translate(224,292)"/>
<path d="M0 0 C0.33 0 0.66 0 1 0 C1.95498418 4.7749209 2.24243031 9.15139376 2 14 C1.34 14.66 0.68 15.32 0 16 C-0.19672365 14.27185839 -0.38196799 12.54240803 -0.5625 10.8125 C-0.71912109 9.36810547 -0.71912109 9.36810547 -0.87890625 7.89453125 C-0.99758751 5.05766623 -0.67765639 2.74576329 0 0 Z " fill="#2E2D30" transform="translate(163,216)"/>
<path d="M0 0 C1.32 0 2.64 0 4 0 C3.67 2.64 3.34 5.28 3 8 C2.34 8 1.68 8 1 8 C1 6.68 1 5.36 1 4 C0.34 4 -0.32 4 -1 4 C-0.67 2.68 -0.34 1.36 0 0 Z " fill="#3C575D" transform="translate(205,291)"/>
<path d="M0 0 C1.4540625 0.0309375 1.4540625 0.0309375 2.9375 0.0625 C2.6075 0.7225 2.2775 1.3825 1.9375 2.0625 C0.6175 2.0625 -0.7025 2.0625 -2.0625 2.0625 C-1.85625 3.17625 -1.65 4.29 -1.4375 5.4375 C-1.31375 6.63375 -1.19 7.83 -1.0625 9.0625 C-1.7225 9.7225 -2.3825 10.3825 -3.0625 11.0625 C-3.25656478 9.41742782 -3.44257935 7.77140406 -3.625 6.125 C-3.72941406 5.20847656 -3.83382812 4.29195312 -3.94140625 3.34765625 C-3.98136719 2.59355469 -4.02132812 1.83945313 -4.0625 1.0625 C-3.0625 0.0625 -3.0625 0.0625 0 0 Z " fill="#115D57" transform="translate(137.0625,195.9375)"/>
<path d="M0 0 C4.75 1.875 4.75 1.875 7 3 C6.34 4.32 5.68 5.64 5 7 C4.01 7 3.02 7 2 7 C1.67 6.01 1.34 5.02 1 4 C0.01 4.495 0.01 4.495 -1 5 C-0.67 3.35 -0.34 1.7 0 0 Z " fill="#16514E" transform="translate(82,194)"/>
<path d="M0 0 C0 0.66 0 1.32 0 2 C-3.3 2.33 -6.6 2.66 -10 3 C-10 2.01 -10 1.02 -10 0 C-6.33694766 -0.74926071 -3.57644848 -1.2380014 0 0 Z " fill="#22252F" transform="translate(168,194)"/>
<path d="M0 0 C1.98 0 3.96 0 6 0 C6.33 1.32 6.66 2.64 7 4 C5.35 4.66 3.7 5.32 2 6 C2 4.68 2 3.36 2 2 C1.34 1.34 0.68 0.68 0 0 Z " fill="#465760" transform="translate(265,291)"/>
<path d="M0 0 C-3 2 -3 2 -5 2 C-5 2.66 -5 3.32 -5 4 C-6.98 4 -8.96 4 -11 4 C-11 3.01 -11 2.02 -11 1 C-7.26562152 0.12132271 -3.83225427 -0.08912219 0 0 Z " fill="#11202A" transform="translate(391,224)"/>
<path d="M0 0 C0.66 0.99 1.32 1.98 2 3 C0.02 3.99 0.02 3.99 -2 5 C-2 5.66 -2 6.32 -2 7 C-2.99 7.33 -3.98 7.66 -5 8 C-5.66 6.68 -6.32 5.36 -7 4 C-5.824375 3.8453125 -5.824375 3.8453125 -4.625 3.6875 C-1.66954819 3.22404978 -1.66954819 3.22404978 0 0 Z " fill="#29595A" transform="translate(225,223)"/>
<path d="M0 0 C1.125 3.75 1.125 3.75 0 6 C-2.475 5.01 -2.475 5.01 -5 4 C-4.67 3.01 -4.34 2.02 -4 1 C-2 0 -2 0 0 0 Z " fill="#081621" transform="translate(145,297)"/>
<path d="M0 0 C0 0.99 0 1.98 0 3 C-4.29 3 -8.58 3 -13 3 C-13 2.67 -13 2.34 -13 2 C-11.39658445 1.66307215 -9.79223445 1.33058907 -8.1875 1 C-7.29417969 0.814375 -6.40085937 0.62875 -5.48046875 0.4375 C-3 0 -3 0 0 0 Z " fill="#244645" transform="translate(330,277)"/>
<path d="M0 0 C0.99 0.33 1.98 0.66 3 1 C-0.465 3.97 -0.465 3.97 -4 7 C-4.33 6.01 -4.66 5.02 -5 4 C-2.6875 1.9375 -2.6875 1.9375 0 0 Z " fill="#385E5E" transform="translate(409,268)"/>
<path d="M0 0 C6.8742236 2.71350932 6.8742236 2.71350932 8.125 5.5625 C8.41375 6.366875 8.7025 7.17125 9 8 C8.01 8.495 8.01 8.495 7 9 C4.03595495 6.19195732 1.55500981 3.81684226 0 0 Z " fill="#113537" transform="translate(396,211)"/>
<path d="M0 0 C0.99 0.66 1.98 1.32 3 2 C3.1875 5.625 3.1875 5.625 3 9 C2.34 8.34 1.68 7.68 1 7 C1 6.01 1 5.02 1 4 C-0.98 4.33 -2.96 4.66 -5 5 C-5 4.34 -5 3.68 -5 3 C-3.35 2.67 -1.7 2.34 0 2 C0 1.34 0 0.68 0 0 Z " fill="#425B5E" transform="translate(257,292)"/>
<path d="M0 0 C1.06723961 3.46222615 1.10173486 6.64039266 1.0625 10.25 C1.05347656 11.32765625 1.04445313 12.4053125 1.03515625 13.515625 C1.02355469 14.33546875 1.01195312 15.1553125 1 16 C0.01 15.67 -0.98 15.34 -2 15 C-1.85879286 13.06215735 -1.71187127 11.12473045 -1.5625 9.1875 C-1.48128906 8.10855469 -1.40007812 7.02960938 -1.31640625 5.91796875 C-1 3 -1 3 0 0 Z " fill="#446C6A" transform="translate(355,230)"/>
<path d="M0 0 C0.6875 1.8125 0.6875 1.8125 1 4 C-0.4375 5.75 -0.4375 5.75 -2 7 C-2.66 6.67 -3.32 6.34 -4 6 C-3.6875 4.125 -3.6875 4.125 -3 2 C-2.01 1.34 -1.02 0.68 0 0 Z " fill="#26645D" transform="translate(244,216)"/>
<path d="M0 0 C2 2.66666667 4 5.33333333 6 8 C3.36 8 0.72 8 -2 8 C-1.34 7.67 -0.68 7.34 0 7 C0 4.69 0 2.38 0 0 Z " fill="#4E696E" transform="translate(220,296)"/>
<path d="M0 0 C2 3.75 2 3.75 2 6 C3.32 5.67 4.64 5.34 6 5 C6 5.99 6 6.98 6 8 C4.02 8 2.04 8 0 8 C0 5.36 0 2.72 0 0 Z " fill="#0E202F" transform="translate(265,295)"/>
<path d="M0 0 C0.33 0.99 0.66 1.98 1 3 C0.01 3.33 -0.98 3.66 -2 4 C-2 3.34 -2 2.68 -2 2 C-5.3 2 -8.6 2 -12 2 C-12 1.67 -12 1.34 -12 1 C-7.915021 0.45533613 -4.1274515 0 0 0 Z " fill="#0A383D" transform="translate(389,266)"/>
<path d="M0 0 C0.33 0 0.66 0 1 0 C1.2226746 1.43534841 1.42761906 2.87345525 1.625 4.3125 C1.74101562 5.11300781 1.85703125 5.91351563 1.9765625 6.73828125 C2 9 2 9 0 12 C-0.66 11.34 -1.32 10.68 -2 10 C-1.7578125 7.6171875 -1.7578125 7.6171875 -1.125 4.875 C-0.92132813 3.96492187 -0.71765625 3.05484375 -0.5078125 2.1171875 C-0.34023438 1.41851562 -0.17265625 0.71984375 0 0 Z " fill="#0C3F3F" transform="translate(341,236)"/>
<path d="M0 0 C2.31 0 4.62 0 7 0 C6.67 0.66 6.34 1.32 6 2 C4.35 2 2.7 2 1 2 C0.67 2.99 0.34 3.98 0 5 C-0.66 4.67 -1.32 4.34 -2 4 C-1.34 2.68 -0.68 1.36 0 0 Z " fill="#1A212E" transform="translate(371,224)"/>
<path d="M0 0 C1.65 0 3.3 0 5 0 C5.33 1.98 5.66 3.96 6 6 C4.68 5.67 3.36 5.34 2 5 C2.66 4.67 3.32 4.34 4 4 C4 3.34 4 2.68 4 2 C2.68 2 1.36 2 0 2 C0 1.34 0 0.68 0 0 Z " fill="#1A353F" transform="translate(253,296)"/>
<path d="M0 0 C0.86625 0.2784375 0.86625 0.2784375 1.75 0.5625 C4.20692525 1.04023546 5.64397534 0.75729364 8 0 C7.01 0.495 7.01 0.495 6 1 C6 1.99 6 2.98 6 4 C5.01 4.33 4.02 4.66 3 5 C2.34 4.67 1.68 4.34 1 4 C0.375 1.9375 0.375 1.9375 0 0 Z " fill="#3F575A" transform="translate(218,291)"/>
<path d="M0 0 C1.13643966 3.40931897 0.86747764 4.00335456 -0.4375 7.1875 C-0.72496094 7.90292969 -1.01242188 8.61835938 -1.30859375 9.35546875 C-1.53675781 9.89816406 -1.76492187 10.44085938 -2 11 C-2.66 9.68 -3.32 8.36 -4 7 C-3.34 7 -2.68 7 -2 7 C-2.33 6.01 -2.66 5.02 -3 4 C-1.5625 1.8125 -1.5625 1.8125 0 0 Z " fill="#58676A" transform="translate(176,288)"/>
<path d="M0 0 C1.65 1.65 3.3 3.3 5 5 C4.67 5.66 4.34 6.32 4 7 C2.68 6.67 1.36 6.34 0 6 C0 4.02 0 2.04 0 0 Z " fill="#386363" transform="translate(301,233)"/>
<path d="M0 0 C0.99 0.33 1.98 0.66 3 1 C3 3.64 3 6.28 3 9 C0.23776722 6.23776722 0.42143709 3.79293383 0 0 Z " fill="#1F4267" transform="translate(365,230)"/>
<path d="M0 0 C0.99 0 1.98 0 3 0 C3.33 1.65 3.66 3.3 4 5 C3.01 5.33 2.02 5.66 1 6 C0.67 4.02 0.34 2.04 0 0 Z " fill="#184F4D" transform="translate(196,213)"/>
<path d="M0 0 C-2.91765 1.9451 -4.62537285 2.45276317 -8 3 C-8.33 2.01 -8.66 1.02 -9 0 C-5.93109813 -1.53445094 -3.29905734 -0.54984289 0 0 Z " fill="#255859" transform="translate(379,209)"/>
<path d="M0 0 C0.99 0.33 1.98 0.66 3 1 C1.6875 3 1.6875 3 0 5 C-0.99 5 -1.98 5 -3 5 C-2.625 3.0625 -2.625 3.0625 -2 1 C-1.34 0.67 -0.68 0.34 0 0 Z " fill="#3F555C" transform="translate(284,291)"/>
<path d="M0 0 C0.9659657 2.60810739 1.02770914 3.89420147 0.3125 6.625 C-1.16625774 9.30084735 -2.17750049 9.96508351 -5 11 C-4.731875 10.484375 -4.46375 9.96875 -4.1875 9.4375 C-2.67650593 6.33598585 -1.34427274 3.17737194 0 0 Z " fill="#2A5959" transform="translate(408,245)"/>
<path d="M0 0 C0.99 0.33 1.98 0.66 3 1 C3 2.32 3 3.64 3 5 C2.34 5 1.68 5 1 5 C1 5.66 1 6.32 1 7 C0.34 7 -0.32 7 -1 7 C-0.67 4.69 -0.34 2.38 0 0 Z " fill="#0A3F3F" transform="translate(357,217)"/>
<path d="M0 0 C2.31 0.33 4.62 0.66 7 1 C7.33 2.32 7.66 3.64 8 5 C5.83125748 4.49396008 4.00032373 4.00016187 2 3 C2 2.34 2 1.68 2 1 C1.34 0.67 0.68 0.34 0 0 Z " fill="#0B383E" transform="translate(398,199)"/>
<path d="M0 0 C0.66 0.33 1.32 0.66 2 1 C0.875 2.5625 0.875 2.5625 -1 4 C-4.1875 3.6875 -4.1875 3.6875 -7 3 C-4.66785852 1.79371992 -2.50357861 0.8345262 0 0 Z " fill="#212F37" transform="translate(161,300)"/>
<path d="M0 0 C0.99 0 1.98 0 3 0 C2.67 1.32 2.34 2.64 2 4 C0.68 4.33 -0.64 4.66 -2 5 C-1.34 3.35 -0.68 1.7 0 0 Z " fill="#24353A" transform="translate(167,300)"/>
<path d="M0 0 C0.99 0.33 1.98 0.66 3 1 C4.1875 3.5625 4.1875 3.5625 5 6 C4.34 6.66 3.68 7.32 3 8 C0 2.25 0 2.25 0 0 Z " fill="#2A5451" transform="translate(192,207)"/>
<path d="M0 0 C1.65 1.65 3.3 3.3 5 5 C4.67 5.66 4.34 6.32 4 7 C3.01 6.67 2.02 6.34 1 6 C0.67 4.02 0.34 2.04 0 0 Z " fill="#3A696A" transform="translate(275,198)"/>
<path d="M0 0 C-2.66666667 1.33333333 -5.33333333 2.66666667 -8 4 C-5.97675095 -0.48005146 -4.79569304 -1.43870791 0 0 Z " fill="#1D2126" transform="translate(170,199)"/>
</svg>
